<?xml version="1.0" encoding="utf-8"?>
<!-- Generator: Adobe Illustrator 23.1.0, SVG Export Plug-In . SVG Version: 6.00 Build 0)  -->
<svg version="1.1" xmlns="http://www.w3.org/2000/svg" xmlns:xlink="http://www.w3.org/1999/xlink" x="0px" y="0px"
	 viewBox="0 0 3840 1920" style="enable-background:new 0 0 3840 1920;" xml:space="preserve">
<style type="text/css">
	.st0{display:none;}
	.st1{display:inline;}
	.st2{display:none;fill:#FFFFFF;}
	.st3{display:none;fill:#FFC400;}
	.st4{fill:none;stroke:#231F20;stroke-width:25;stroke-linecap:round;stroke-linejoin:round;stroke-miterlimit:10;}
	.st5{fill:none;stroke:#000000;stroke-width:5;stroke-miterlimit:10;}
	.st6{display:inline;fill:none;stroke:#000000;stroke-width:5;stroke-miterlimit:10;}
	.st7{display:inline;clip-path:url(#SVGID_1_);}
	.st8{stroke:#000000;stroke-width:5;stroke-miterlimit:10;}
	.st9{fill:none;stroke:#000000;stroke-width:10;stroke-miterlimit:10;}
	.st10{fill:none;stroke:#000000;stroke-width:15;stroke-miterlimit:10;}
	.st11{display:inline;clip-path:url(#SVGID_2_);}
	.st12{clip-path:url(#SVGID_6_);}
	.st13{clip-path:url(#SVGID_7_);}
	.st14{fill:#231F20;}
	.st15{display:inline;fill:none;stroke:#FFC400;stroke-width:20;stroke-miterlimit:10;}
	.st16{fill:none;stroke:#000000;stroke-width:25;stroke-miterlimit:10;}
	.st17{fill:none;stroke:#000000;stroke-miterlimit:10;}
	.st18{clip-path:url(#SVGID_8_);}
	.st19{display:inline;clip-path:url(#SVGID_9_);}
	.st20{display:inline;clip-path:url(#SVGID_10_);}
	.st21{clip-path:url(#SVGID_12_);}
</style>
<g id="BG">
</g>
<g id="elements" class="st0">
	<g class="st1">
		<rect y="-120" class="st2" width="3840" height="2160"/>
		<polygon class="st3" points="2454.24,723.92 2470.91,707.25 2487.58,723.92 2514.26,697.25 2497.58,680.58 2514.26,663.91 
			2487.58,637.24 2470.91,653.91 2454.24,637.24 2427.57,663.91 2444.24,680.58 2427.57,697.25 		"/>
		<polygon class="st3" points="1446.86,109.68 1446.86,557.21 1896.83,557.21 		"/>
		<path class="st4" d="M2153.86,346.19c21.72,19.91,55.05,19.91,76.76,0h0c21.72-19.91,55.05-19.91,76.76,0l0,0
			c21.72,19.91,55.05,19.91,76.76,0l0,0c21.72-19.91,55.05-19.91,76.76,0h0c21.72,19.91,55.05,19.91,76.76,0l0,0
			c21.72-19.91,55.05-19.91,76.76,0l0,0c21.72,19.91,55.05,19.91,76.76,0l0,0c21.72-19.91,55.05-19.91,76.76,0l0,0
			c21.72,19.91,55.05,19.91,76.76,0"/>
		<path class="st4" d="M2153.86,254.93c21.72,19.91,55.05,19.91,76.76,0l0,0c21.72-19.91,55.05-19.91,76.76,0v0
			c21.72,19.91,55.05,19.91,76.76,0v0c21.72-19.91,55.05-19.91,76.76,0l0,0c21.72,19.91,55.05,19.91,76.76,0v0
			c21.72-19.91,55.05-19.91,76.76,0v0c21.72,19.91,55.05,19.91,76.76,0v0c21.72-19.91,55.05-19.91,76.76,0v0
			c21.72,19.91,55.05,19.91,76.76,0"/>
		<g>
			<path class="st5" d="M351.15,905.01c0,14.36-5.35,28.1-15.05,38.69c-7.05,7.69-7.05,19.29,0,26.98
				c9.71,10.59,15.05,24.33,15.05,38.69c0,14.36-5.35,28.1-15.05,38.69c-7.05,7.69-7.05,19.29,0,26.98
				c9.71,10.59,15.05,24.33,15.05,38.69c0,14.36-5.35,28.1-15.05,38.69c-7.05,7.69-7.05,19.29,0,26.98
				c9.71,10.59,15.05,24.33,15.05,38.69c0,14.36-5.35,28.1-15.05,38.69c-7.05,7.69-7.05,19.29,0,26.98
				c6.96,7.59,6.45,19.38-1.14,26.34c-7.59,6.96-19.39,6.45-26.34-1.14c-9.71-10.59-15.05-24.33-15.05-38.69
				c0-14.36,5.35-28.1,15.05-38.69c7.05-7.69,7.05-19.29,0-26.98c-9.71-10.59-15.05-24.33-15.05-38.69
				c0-14.36,5.35-28.1,15.05-38.69c7.05-7.69,7.05-19.29,0-26.98c-9.71-10.59-15.05-24.33-15.05-38.69
				c0-14.36,5.35-28.1,15.05-38.69c7.05-7.69,7.05-19.29,0-26.98c-9.71-10.59-15.05-24.33-15.05-38.69
				c0-14.36,5.35-28.1,15.05-38.69c7.05-7.69,7.05-19.29,0-26.98c-9.71-10.59-15.05-24.33-15.05-38.69s5.35-28.1,15.05-38.69
				c6.96-7.59,18.75-8.1,26.34-1.14c7.59,6.96,8.1,18.75,1.14,26.34c-7.05,7.69-7.05,19.29,0,26.98
				C345.8,876.91,351.15,890.65,351.15,905.01z"/>
		</g>
		<g>
			<path d="M1828.4,704.89c-14.36,0-28.1-5.35-38.69-15.05c-7.69-7.05-19.29-7.05-26.98,0c-10.59,9.71-24.33,15.05-38.69,15.05
				c-14.36,0-28.1-5.35-38.69-15.05c-7.69-7.05-19.29-7.05-26.98,0c-10.59,9.71-24.33,15.05-38.69,15.05
				c-14.36,0-28.1-5.35-38.69-15.05c-7.69-7.05-19.29-7.05-26.98,0c-10.59,9.71-24.33,15.05-38.69,15.05
				c-14.36,0-28.1-5.35-38.69-15.05c-7.69-7.05-19.29-7.05-26.98,0c-7.59,6.96-19.38,6.45-26.34-1.14
				c-6.96-7.59-6.45-19.39,1.14-26.34c10.59-9.71,24.33-15.05,38.69-15.05c14.36,0,28.1,5.35,38.69,15.05
				c7.69,7.05,19.29,7.05,26.98,0c10.59-9.71,24.33-15.05,38.69-15.05c14.36,0,28.1,5.35,38.69,15.05c7.69,7.05,19.29,7.05,26.98,0
				c10.59-9.71,24.33-15.05,38.69-15.05c14.36,0,28.1,5.35,38.69,15.05c7.69,7.05,19.29,7.05,26.98,0
				c10.59-9.71,24.33-15.05,38.69-15.05c14.36,0,28.1,5.35,38.69,15.05c7.69,7.05,19.29,7.05,26.98,0
				c10.59-9.71,24.33-15.05,38.69-15.05c14.36,0,28.1,5.35,38.69,15.05c7.59,6.96,8.1,18.75,1.14,26.34
				c-6.96,7.59-18.75,8.1-26.34,1.14c-7.69-7.05-19.29-7.05-26.98,0C1856.5,699.55,1842.76,704.89,1828.4,704.89z"/>
		</g>
		<polygon points="1352.47,1496.38 1373.19,1475.67 1393.91,1496.38 1427.05,1463.24 1406.33,1442.52 1427.05,1421.81 
			1393.91,1388.66 1373.19,1409.38 1352.47,1388.66 1319.33,1421.81 1340.04,1442.52 1319.33,1463.24 		"/>
		<polygon class="st5" points="2458.89,744.09 2475.56,727.42 2492.23,744.09 2518.9,717.42 2502.23,700.74 2518.9,684.07 
			2492.23,657.4 2475.56,674.07 2458.89,657.4 2432.21,684.07 2448.88,700.74 2432.21,717.42 		"/>
		<polygon points="758.67,109.68 826.51,148.84 826.51,70.51 		"/>
		<polygon points="690.83,109.68 758.67,148.84 758.67,70.51 		"/>
		<polyline class="st5" points="2499.3,1808.71 2431.47,1769.54 2431.47,1847.87 2499.3,1808.71 		"/>
		<polygon class="st5" points="2567.14,1808.71 2499.3,1769.54 2499.3,1847.87 		"/>
		<g>
			
				<rect x="2726.76" y="1573.44" transform="matrix(0.7071 -0.7071 0.7071 0.7071 -328.4188 2423.9131)" class="st5" width="69.9" height="69.9"/>
			
				<rect x="2705.42" y="1552.1" transform="matrix(0.7071 -0.7071 0.7071 0.7071 -328.4188 2423.9131)" class="st5" width="112.58" height="112.58"/>
			
				<rect x="2684.08" y="1530.77" transform="matrix(0.7071 -0.7071 0.7071 0.7071 -328.4188 2423.9131)" class="st5" width="155.26" height="155.26"/>
			
				<rect x="2662.75" y="1509.43" transform="matrix(0.7071 -0.7071 0.7071 0.7071 -328.4188 2423.9131)" class="st5" width="197.93" height="197.93"/>
			
				<rect x="2641.41" y="1488.09" transform="matrix(0.7071 -0.7071 0.7071 0.7071 -328.4188 2423.9131)" class="st5" width="240.61" height="240.61"/>
			
				<rect x="2620.07" y="1466.75" transform="matrix(0.7071 -0.7071 0.7071 0.7071 -328.4191 2423.9121)" class="st5" width="283.29" height="283.29"/>
			
				<rect x="2598.73" y="1445.41" transform="matrix(0.7071 -0.7071 0.7071 0.7071 -328.4188 2423.9131)" class="st5" width="325.97" height="325.97"/>
			
				<rect x="2577.39" y="1424.07" transform="matrix(0.7071 -0.7071 0.7071 0.7071 -328.4188 2423.9131)" class="st5" width="368.65" height="368.65"/>
		</g>
		<g class="st0">
			<rect x="1398.32" y="989.82" class="st6" width="97.09" height="97.09"/>
			<rect x="1368.68" y="960.19" class="st6" width="156.36" height="156.36"/>
			<rect x="1339.04" y="930.55" class="st6" width="215.64" height="215.64"/>
			<rect x="1309.4" y="900.91" class="st6" width="274.92" height="274.92"/>
			<rect x="1279.77" y="871.27" class="st6" width="334.19" height="334.19"/>
			<rect x="1250.13" y="841.63" class="st6" width="393.47" height="393.47"/>
			<rect x="1220.49" y="811.99" class="st6" width="452.75" height="452.75"/>
			<rect x="1190.85" y="782.35" class="st6" width="512.02" height="512.02"/>
		</g>
		<g class="st0">
			<defs>
				<circle id="SVGID_11_" cx="2738.28" cy="350.84" r="280.62"/>
			</defs>
			<clipPath id="SVGID_1_" class="st1">
				<use xlink:href="#SVGID_11_"  style="overflow:visible;"/>
			</clipPath>
			<g class="st7">
				<line class="st8" x1="3125.04" y1="360.93" x2="2728.19" y2="-35.93"/>
				<line class="st8" x1="3093.65" y1="392.32" x2="2696.8" y2="-4.54"/>
				<line class="st8" x1="3062.26" y1="423.71" x2="2665.41" y2="26.85"/>
				<line class="st8" x1="3030.87" y1="455.1" x2="2634.02" y2="58.24"/>
				<line class="st8" x1="2999.48" y1="486.49" x2="2602.63" y2="89.63"/>
				<line class="st8" x1="2968.09" y1="517.87" x2="2571.24" y2="121.02"/>
				<line class="st8" x1="2936.7" y1="549.26" x2="2539.85" y2="152.41"/>
				<line class="st8" x1="2905.31" y1="580.65" x2="2508.46" y2="183.8"/>
				<line class="st8" x1="2873.92" y1="612.04" x2="2477.07" y2="215.19"/>
				<line class="st8" x1="2842.53" y1="643.43" x2="2445.68" y2="246.58"/>
				<line class="st8" x1="2811.14" y1="674.82" x2="2414.29" y2="277.97"/>
				<line class="st8" x1="2779.75" y1="706.21" x2="2382.9" y2="309.36"/>
				<line class="st8" x1="2748.36" y1="737.6" x2="2351.51" y2="340.75"/>
			</g>
		</g>
		<circle class="st3" cx="451.22" cy="309.34" r="179.79"/>
		<g>
			<path class="st5" d="M451.22,246.53c-34.71,0-62.84,28.13-62.84,62.83"/>
			<path class="st5" d="M451.22,207.55c-56.23,0-101.82,45.58-101.82,101.81"/>
			<path class="st5" d="M451.22,168.57c-77.76,0-140.8,63.03-140.8,140.79"/>
			<path class="st5" d="M451.22,129.59c-99.29,0-179.77,80.49-179.77,179.77"/>
			<path class="st5" d="M451.22,90.61c-120.82,0-218.75,97.94-218.75,218.75"/>
			<path class="st5" d="M451.22,51.63c-142.35,0-257.73,115.39-257.73,257.73"/>
		</g>
		<g>
			<path class="st9" d="M451.22,372.19c-34.71,0-62.84-28.13-62.84-62.83"/>
			<path class="st9" d="M451.22,411.17c-56.23,0-101.82-45.58-101.82-101.81"/>
			<path class="st9" d="M451.22,450.15c-77.76,0-140.79-63.04-140.79-140.79"/>
			<path class="st9" d="M451.22,489.13c-99.29,0-179.77-80.49-179.77-179.77"/>
			<path class="st9" d="M451.22,528.11c-120.82,0-218.75-97.94-218.75-218.75"/>
			<path class="st9" d="M451.22,567.07c-142.33,0-257.73-115.38-257.73-257.71"/>
		</g>
		<path class="st3" d="M1465.35,1691.81c0-92.15,74.71-166.84,166.85-166.84c92.15,0,166.84,74.69,166.84,166.84H1465.35z"/>
		<path d="M1093.67,734.06c-31.64,0-57.28-25.65-57.28-57.28s25.64-57.28,57.28-57.28V734.06z"/>
		<path class="st3" d="M3579.15,1127.95c0,92.15-74.71,166.84-166.85,166.84c-92.15,0-166.84-74.69-166.84-166.84L3579.15,1127.95z"
			/>
		<circle class="st5" cx="1799.05" cy="1609.37" r="166.85"/>
		<path class="st5" d="M2136.22,1022.21c0,77.58-62.89,140.48-140.48,140.48c-77.58,0-140.48-62.89-140.48-140.48
			s62.89-140.48,140.48-140.48"/>
		<path class="st10" d="M3528.13,1403.6c0-35.8,29.02-64.83,64.83-64.83s64.83,29.03,64.83,64.83s-29.02,64.83-64.83,64.83"/>
		<path class="st5" d="M1235.29,155.7c0-24.56,19.91-44.48,44.48-44.48c24.56,0,44.48,19.91,44.48,44.48
			c0,24.56-19.91,44.48-44.48,44.48"/>
		
			<rect x="1023.73" y="1561.88" transform="matrix(-1 -1.224647e-16 1.224647e-16 -1 2287.4858 3363.7947)" class="st3" width="240.03" height="240.03"/>
		<polyline class="st5" points="963.23,1755.4 1036.09,1681.9 963.56,1609.37 		"/>
		<polyline class="st5" points="1015.52,1755.4 1088.38,1681.9 1015.85,1609.37 		"/>
		<polyline class="st5" points="1067.81,1755.4 1140.66,1681.9 1068.14,1609.37 		"/>
		<polyline class="st5" points="1120.1,1755.4 1192.95,1681.9 1120.42,1609.37 		"/>
		<polygon class="st3" points="637.6,731.12 474.91,637.19 474.91,825.05 		"/>
		<polygon class="st3" points="776.19,987.94 605.28,1283.97 947.11,1283.97 		"/>
		<polygon class="st3" points="3460.18,1608.39 3172.03,1442.03 3172.03,1774.76 		"/>
		<polygon class="st3" points="2843.47,939.1 2659.44,1257.85 3027.49,1257.85 		"/>
		<g class="st0">
			<polygon class="st6" points="1047.01,74.8 776.19,543.88 1317.84,543.88 			"/>
			<polygon class="st6" points="1047.01,116.3 812.13,523.13 1281.9,523.13 			"/>
			<polygon class="st6" points="1047.01,157.8 848.07,502.38 1245.96,502.38 			"/>
			<polygon class="st6" points="1047.01,199.29 884.01,481.63 1210.02,481.63 			"/>
			<polygon class="st6" points="1047.01,240.79 919.95,460.88 1174.08,460.88 			"/>
			<polygon class="st6" points="1047.01,282.29 955.89,440.13 1138.14,440.13 			"/>
			<polygon class="st6" points="1047.01,323.79 991.82,419.38 1102.2,419.38 			"/>
		</g>
		<line class="st9" x1="2012.79" y1="992.21" x2="2012.79" y2="1052.22"/>
		<line class="st9" x1="2042.8" y1="1022.21" x2="1982.79" y2="1022.21"/>
		<line class="st9" x1="2099.14" y1="992.21" x2="2099.14" y2="1052.22"/>
		<line class="st9" x1="2129.15" y1="1022.21" x2="2069.14" y2="1022.21"/>
		<line class="st9" x1="2185.49" y1="992.21" x2="2185.49" y2="1052.22"/>
		<line class="st9" x1="2215.5" y1="1022.21" x2="2155.49" y2="1022.21"/>
		<line class="st5" x1="2340.36" y1="587.36" x2="2340.36" y2="548.33"/>
		<line class="st5" x1="2320.85" y1="567.85" x2="2359.88" y2="567.85"/>
		<line class="st5" x1="2285.72" y1="587.36" x2="2285.72" y2="548.33"/>
		<line class="st5" x1="2266.21" y1="567.85" x2="2305.24" y2="567.85"/>
		<line class="st5" x1="2231.08" y1="587.36" x2="2231.08" y2="548.33"/>
		<line class="st5" x1="2211.57" y1="567.85" x2="2250.6" y2="567.85"/>
		<line class="st5" x1="2285.72" y1="639.01" x2="2285.72" y2="599.98"/>
		<line class="st5" x1="2266.21" y1="619.5" x2="2305.24" y2="619.5"/>
		<line class="st5" x1="2231.08" y1="639.01" x2="2231.08" y2="599.98"/>
		<line class="st5" x1="2211.57" y1="619.5" x2="2250.6" y2="619.5"/>
		<line class="st5" x1="2176.44" y1="639.01" x2="2176.44" y2="599.98"/>
		<line class="st5" x1="2156.93" y1="619.5" x2="2195.96" y2="619.5"/>
		<line class="st5" x1="2231.08" y1="690.66" x2="2231.08" y2="651.63"/>
		<line class="st5" x1="2211.57" y1="671.15" x2="2250.6" y2="671.15"/>
		<line class="st5" x1="2176.44" y1="690.66" x2="2176.44" y2="651.63"/>
		<line class="st5" x1="2156.93" y1="671.15" x2="2195.96" y2="671.15"/>
		<line class="st5" x1="2121.8" y1="690.66" x2="2121.8" y2="651.63"/>
		<line class="st5" x1="2102.29" y1="671.15" x2="2141.32" y2="671.15"/>
		<line class="st9" x1="818.9" y1="1862.99" x2="818.9" y2="1754.43"/>
		<line class="st9" x1="764.62" y1="1808.71" x2="873.18" y2="1808.71"/>
		
			<rect x="2158.42" y="1393.38" transform="matrix(-1 -1.224647e-16 1.224647e-16 -1 4435.3901 2905.3174)" class="st3" width="118.55" height="118.55"/>
		
			<rect x="2189.97" y="1424.93" transform="matrix(-1 -1.224647e-16 1.224647e-16 -1 4498.4868 2968.4141)" class="st5" width="118.55" height="118.55"/>
		
			<rect x="3353.46" y="156.24" transform="matrix(-1 -1.224647e-16 1.224647e-16 -1 6846.7637 452.3384)" class="st3" width="139.85" height="139.85"/>
		<polyline class="st5" points="426.51,776.26 471.55,730.82 426.71,685.98 		"/>
		<polyline class="st5" points="458.84,776.26 503.88,730.82 459.04,685.98 		"/>
		<polyline class="st5" points="491.16,776.26 536.21,730.82 491.36,685.98 		"/>
		<g class="st0">
			<defs>
				<polygon id="SVGID_13_" points="3573.63,1608.39 3285.47,1442.03 3285.47,1774.76 				"/>
			</defs>
			<clipPath id="SVGID_2_" class="st1">
				<use xlink:href="#SVGID_13_"  style="overflow:visible;"/>
			</clipPath>
			<g class="st11">
				<line class="st5" x1="3544.65" y1="1819.71" x2="3544.65" y2="1395.27"/>
				<line class="st5" x1="3508.5" y1="1819.71" x2="3508.5" y2="1395.27"/>
				<line class="st5" x1="3472.35" y1="1819.71" x2="3472.35" y2="1395.27"/>
				<line class="st5" x1="3436.21" y1="1819.71" x2="3436.21" y2="1395.27"/>
				<line class="st5" x1="3400.06" y1="1819.71" x2="3400.06" y2="1395.27"/>
				<line class="st5" x1="3363.91" y1="1819.71" x2="3363.91" y2="1395.27"/>
				<line class="st5" x1="3327.76" y1="1819.71" x2="3327.76" y2="1395.27"/>
				<line class="st5" x1="3291.61" y1="1819.71" x2="3291.61" y2="1395.27"/>
			</g>
		</g>
		<circle class="st3" cx="378.01" cy="1672.49" r="176.24"/>
		<g>
			<defs>
				<circle id="SVGID_15_" cx="524.42" cy="1672.49" r="176.24"/>
			</defs>
			<clipPath id="SVGID_6_">
				<use xlink:href="#SVGID_15_"  style="overflow:visible;"/>
			</clipPath>
			<g class="st12">
				<line class="st5" x1="492.79" y1="1945.7" x2="797.63" y2="1640.86"/>
				<line class="st5" x1="474.21" y1="1927.12" x2="779.05" y2="1622.28"/>
				<line class="st5" x1="455.62" y1="1908.53" x2="760.46" y2="1603.69"/>
				<line class="st5" x1="437.04" y1="1889.95" x2="741.88" y2="1585.11"/>
				<line class="st5" x1="418.46" y1="1871.37" x2="723.3" y2="1566.53"/>
				<line class="st5" x1="399.88" y1="1852.79" x2="704.72" y2="1547.95"/>
				<line class="st5" x1="381.29" y1="1834.2" x2="686.13" y2="1529.36"/>
				<line class="st5" x1="362.71" y1="1815.62" x2="667.55" y2="1510.78"/>
				<line class="st5" x1="344.13" y1="1797.04" x2="648.97" y2="1492.2"/>
				<line class="st5" x1="325.55" y1="1778.46" x2="630.39" y2="1473.62"/>
				<line class="st5" x1="306.96" y1="1759.87" x2="611.8" y2="1455.03"/>
				<line class="st5" x1="288.38" y1="1741.29" x2="593.22" y2="1436.45"/>
				<line class="st5" x1="269.8" y1="1722.71" x2="574.64" y2="1417.87"/>
				<line class="st5" x1="251.22" y1="1704.13" x2="556.06" y2="1399.29"/>
			</g>
		</g>
		<polyline class="st5" points="3215.83,194.45 3248.97,240.43 3282.11,194.45 3315.25,240.43 3348.39,194.45 3381.53,240.43 
			3414.66,194.45 3447.8,240.43 3480.94,194.45 3514.08,240.43 3547.22,194.45 		"/>
		<polyline class="st5" points="3215.83,148.47 3248.97,194.45 3282.11,148.47 3315.25,194.45 3348.39,148.47 3381.53,194.45 
			3414.66,148.47 3447.8,194.45 3480.94,148.47 3514.08,194.45 3547.22,148.47 		"/>
		<polyline class="st5" points="3215.83,102.49 3248.97,148.47 3282.11,102.49 3315.25,148.47 3348.39,102.49 3381.53,148.47 
			3414.66,102.49 3447.8,148.47 3480.94,102.49 3514.08,148.47 3547.22,102.49 		"/>
		<circle class="st3" cx="2012.79" cy="1324.77" r="27.35"/>
		<circle class="st5" cx="2392.25" cy="109.68" r="46.02"/>
		<line class="st5" x1="3055.48" y1="970.28" x2="2982.3" y2="897.1"/>
		<line class="st5" x1="2982.3" y1="970.28" x2="3055.48" y2="897.1"/>
		<line class="st9" x1="2311.66" y1="1294.44" x2="2238.48" y2="1221.26"/>
		<line class="st9" x1="2238.48" y1="1294.44" x2="2311.66" y2="1221.26"/>
		<circle class="st3" cx="3573.63" cy="379.75" r="38.7"/>
		
			<ellipse transform="matrix(0.2298 -0.9732 0.9732 0.2298 1293.1656 4036.6936)" cx="3196.87" cy="1201.36" rx="12.97" ry="12.97"/>
		
			<ellipse transform="matrix(0.2298 -0.9732 0.9732 0.2298 1326.2249 4078.4658)" cx="3239.79" cy="1201.36" rx="12.97" ry="12.97"/>
		<ellipse transform="matrix(0.7071 -0.7071 0.7071 0.7071 111.9976 2673.0967)" cx="3282.71" cy="1201.36" rx="12.97" ry="12.97"/>
		<ellipse transform="matrix(0.1602 -0.9871 0.9871 0.1602 355.5183 2830.7837)" cx="1841.35" cy="1206.46" rx="15.53" ry="15.53"/>
		<ellipse transform="matrix(0.2298 -0.9732 0.9732 0.2298 194.0969 2760.9475)" cx="1841.35" cy="1257.85" rx="15.53" ry="15.53"/>
		<ellipse transform="matrix(0.1602 -0.9871 0.9871 0.1602 254.0719 2917.0947)" cx="1841.35" cy="1309.23" rx="15.53" ry="15.53"/>
		
			<ellipse transform="matrix(0.2298 -0.9732 0.9732 0.2298 1392.3436 4162.0103)" cx="3325.63" cy="1201.36" rx="12.97" ry="12.97"/>
		<ellipse transform="matrix(0.7071 -0.7071 0.7071 0.7071 137.1398 2733.7952)" cx="3368.55" cy="1201.36" rx="12.97" ry="12.97"/>
		
			<rect x="2302.8" y="1816.88" transform="matrix(-1 -1.224647e-16 1.224647e-16 -1 4621.8584 3650.0129)" width="16.26" height="16.26"/>
		
			<rect x="2266.94" y="1816.88" transform="matrix(-1 -1.224647e-16 1.224647e-16 -1 4550.1431 3650.0129)" width="16.26" height="16.26"/>
		
			<rect x="2231.08" y="1816.88" transform="matrix(-1 -1.224647e-16 1.224647e-16 -1 4478.4277 3650.0129)" width="16.26" height="16.26"/>
		
			<rect x="2195.23" y="1816.88" transform="matrix(-1 -1.224647e-16 1.224647e-16 -1 4406.7124 3650.0129)" width="16.26" height="16.26"/>
		
			<rect x="2159.37" y="1816.88" transform="matrix(-1 -1.224647e-16 1.224647e-16 -1 4334.9966 3650.0129)" width="16.26" height="16.26"/>
		
			<rect x="2302.8" y="1766.63" transform="matrix(-1 -1.224647e-16 1.224647e-16 -1 4621.8584 3549.5137)" width="16.26" height="16.26"/>
		
			<rect x="2266.94" y="1766.63" transform="matrix(-1 -1.224647e-16 1.224647e-16 -1 4550.1431 3549.5137)" width="16.26" height="16.26"/>
		
			<rect x="2231.08" y="1766.63" transform="matrix(-1 -1.224647e-16 1.224647e-16 -1 4478.4277 3549.5137)" width="16.26" height="16.26"/>
		
			<rect x="2195.23" y="1766.63" transform="matrix(-1 -1.224647e-16 1.224647e-16 -1 4406.7124 3549.5137)" width="16.26" height="16.26"/>
		
			<rect x="2159.37" y="1766.63" transform="matrix(-1 -1.224647e-16 1.224647e-16 -1 4334.9966 3549.5137)" width="16.26" height="16.26"/>
		
			<rect x="2302.8" y="1716.38" transform="matrix(-1 -1.224647e-16 1.224647e-16 -1 4621.8584 3449.0146)" width="16.26" height="16.26"/>
		
			<rect x="2266.94" y="1716.38" transform="matrix(-1 -1.224647e-16 1.224647e-16 -1 4550.1431 3449.0146)" width="16.26" height="16.26"/>
		
			<rect x="2231.08" y="1716.38" transform="matrix(-1 -1.224647e-16 1.224647e-16 -1 4478.4277 3449.0146)" width="16.26" height="16.26"/>
		
			<rect x="2195.23" y="1716.38" transform="matrix(-1 -1.224647e-16 1.224647e-16 -1 4406.7124 3449.0146)" width="16.26" height="16.26"/>
		
			<rect x="2159.37" y="1716.38" transform="matrix(-1 -1.224647e-16 1.224647e-16 -1 4334.9966 3449.0146)" width="16.26" height="16.26"/>
		
			<rect x="477.04" y="1390.52" transform="matrix(-1 -1.224647e-16 1.224647e-16 -1 984.3344 2811.2903)" width="30.25" height="30.25"/>
		
			<rect x="400.94" y="1390.52" transform="matrix(-1 -1.224647e-16 1.224647e-16 -1 832.1221 2811.2903)" width="30.25" height="30.25"/>
		
			<rect x="324.83" y="1390.52" transform="matrix(-1 -1.224647e-16 1.224647e-16 -1 679.9097 2811.2903)" width="30.25" height="30.25"/>
		
			<rect x="248.73" y="1390.52" transform="matrix(-1 -1.224647e-16 1.224647e-16 -1 527.6974 2811.2903)" width="30.25" height="30.25"/>
		<g class="st0">
			<g class="st1">
				<ellipse transform="matrix(0.9239 -0.3827 0.3827 0.9239 -103.5429 1150.219)" cx="2839.5" cy="835.38" rx="16.5" ry="16.5"/>
				<circle cx="2791.03" cy="835.38" r="15.36"/>
				<path d="M2756.8,835.38c0,7.86-6.37,14.22-14.22,14.22s-14.22-6.37-14.22-14.22s6.37-14.22,14.22-14.22
					S2756.8,827.53,2756.8,835.38z"/>
				<circle cx="2694.11" cy="835.38" r="13.09"/>
				
					<ellipse transform="matrix(0.2298 -0.9732 0.9732 0.2298 1224.7739 3218.3306)" cx="2645.65" cy="835.38" rx="11.95" ry="11.95"/>
				
					<ellipse transform="matrix(0.7071 -0.7071 0.7071 0.7071 169.9956 2081.1697)" cx="2597.19" cy="835.38" rx="10.82" ry="10.82"/>
				<ellipse transform="matrix(0.3827 -0.9239 0.9239 0.3827 801.5848 2870.4182)" cx="2548.73" cy="835.38" rx="9.68" ry="9.68"/>
				<path d="M2508.81,835.38c0,4.72-3.82,8.54-8.54,8.54c-4.72,0-8.54-3.82-8.54-8.54c0-4.72,3.82-8.54,8.54-8.54
					C2504.99,826.84,2508.81,830.66,2508.81,835.38z"/>
				<path d="M2459.22,835.38c0,4.09-3.32,7.41-7.41,7.41c-4.09,0-7.41-3.32-7.41-7.41c0-4.09,3.32-7.41,7.41-7.41
					C2455.9,827.97,2459.22,831.29,2459.22,835.38z"/>
				<path d="M2409.62,835.38c0,3.46-2.81,6.27-6.27,6.27c-3.46,0-6.27-2.81-6.27-6.27s2.81-6.27,6.27-6.27
					C2406.81,829.11,2409.62,831.92,2409.62,835.38z"/>
			</g>
			<g class="st1">
				<ellipse transform="matrix(0.9239 -0.3827 0.3827 0.9239 -124.6396 1154.4154)" cx="2839.5" cy="890.51" rx="16.5" ry="16.5"/>
				<path d="M2806.39,890.51c0,8.48-6.88,15.36-15.36,15.36c-8.48,0-15.36-6.88-15.36-15.36s6.88-15.36,15.36-15.36
					C2799.52,875.15,2806.39,882.03,2806.39,890.51z"/>
				<circle cx="2742.57" cy="890.51" r="14.22"/>
				<path d="M2707.2,890.51c0,7.23-5.86,13.09-13.09,13.09s-13.09-5.86-13.09-13.09c0-7.23,5.86-13.09,13.09-13.09
					S2707.2,883.28,2707.2,890.51z"/>
				<path d="M2657.6,890.51c0,6.6-5.35,11.95-11.95,11.95c-6.6,0-11.95-5.35-11.95-11.95c0-6.6,5.35-11.95,11.95-11.95
					C2652.25,878.56,2657.6,883.91,2657.6,890.51z"/>
				
					<ellipse transform="matrix(0.1602 -0.9871 0.9871 0.1602 1302.1575 3311.5222)" cx="2597.19" cy="890.51" rx="10.82" ry="10.82"/>
				<circle cx="2548.73" cy="890.51" r="9.68"/>
				<path d="M2508.81,890.51c0,4.72-3.82,8.54-8.54,8.54s-8.54-3.82-8.54-8.54c0-4.72,3.82-8.54,8.54-8.54
					S2508.81,885.79,2508.81,890.51z"/>
				<path d="M2459.22,890.51c0,4.09-3.32,7.41-7.41,7.41c-4.09,0-7.41-3.32-7.41-7.41c0-4.09,3.32-7.41,7.41-7.41
					C2455.9,883.1,2459.22,886.42,2459.22,890.51z"/>
				<path d="M2409.62,890.51c0,3.46-2.81,6.27-6.27,6.27c-3.46,0-6.27-2.81-6.27-6.27c0-3.46,2.81-6.27,6.27-6.27
					C2406.81,884.24,2409.62,887.05,2409.62,890.51z"/>
			</g>
			<g class="st1">
				<ellipse transform="matrix(0.8732 -0.4874 0.4874 0.8732 -100.8193 1503.7738)" cx="2839.5" cy="945.64" rx="16.5" ry="16.5"/>
				<circle cx="2791.03" cy="945.64" r="15.36"/>
				<circle cx="2742.57" cy="945.64" r="14.22"/>
				<circle cx="2694.11" cy="945.64" r="13.09"/>
				<ellipse transform="matrix(0.7071 -0.7071 0.7071 0.7071 106.2264 2147.73)" cx="2645.65" cy="945.64" rx="11.95" ry="11.95"/>
				<circle cx="2597.19" cy="945.64" r="10.82"/>
				<circle cx="2548.73" cy="945.64" r="9.68"/>
				<path d="M2508.81,945.64c0,4.72-3.82,8.54-8.54,8.54s-8.54-3.82-8.54-8.54c0-4.72,3.82-8.54,8.54-8.54
					S2508.81,940.92,2508.81,945.64z"/>
				<path d="M2459.22,945.64c0,4.09-3.32,7.41-7.41,7.41c-4.09,0-7.41-3.32-7.41-7.41c0-4.09,3.32-7.41,7.41-7.41
					C2455.9,938.23,2459.22,941.55,2459.22,945.64z"/>
				<path d="M2409.62,945.64c0,3.46-2.81,6.27-6.27,6.27c-3.46,0-6.27-2.81-6.27-6.27c0-3.46,2.81-6.27,6.27-6.27
					C2406.81,939.37,2409.62,942.17,2409.62,945.64z"/>
			</g>
			<g class="st1">
				<ellipse transform="matrix(0.2298 -0.9732 0.9732 0.2298 1213.1202 3534.3748)" cx="2839.5" cy="1000.77" rx="16.5" ry="16.5"/>
				<path d="M2806.39,1000.77c0,8.48-6.88,15.36-15.36,15.36s-15.36-6.88-15.36-15.36c0-8.48,6.88-15.36,15.36-15.36
					C2799.52,985.41,2806.39,992.28,2806.39,1000.77z"/>
				<circle cx="2742.57" cy="1000.77" r="14.22"/>
				<path d="M2707.2,1000.77c0,7.23-5.86,13.09-13.09,13.09c-7.23,0-13.09-5.86-13.09-13.09c0-7.23,5.86-13.09,13.09-13.09
					S2707.2,993.54,2707.2,1000.77z"/>
				<circle cx="2645.65" cy="1000.77" r="11.95"/>
				<circle cx="2597.19" cy="1000.77" r="10.82"/>
				<circle cx="2548.73" cy="1000.77" r="9.68"/>
				<path d="M2508.81,1000.77c0,4.72-3.82,8.54-8.54,8.54s-8.54-3.82-8.54-8.54c0-4.72,3.82-8.54,8.54-8.54
					S2508.81,996.05,2508.81,1000.77z"/>
				<path d="M2459.22,1000.77c0,4.09-3.32,7.41-7.41,7.41c-4.09,0-7.41-3.32-7.41-7.41c0-4.09,3.32-7.41,7.41-7.41
					C2455.9,993.36,2459.22,996.68,2459.22,1000.77z"/>
				<path d="M2409.62,1000.77c0,3.46-2.81,6.27-6.27,6.27c-3.46,0-6.27-2.81-6.27-6.27c0-3.46,2.81-6.27,6.27-6.27
					C2406.81,994.5,2409.62,997.3,2409.62,1000.77z"/>
			</g>
			<g class="st1">
				<ellipse transform="matrix(0.7071 -0.7071 0.7071 0.7071 85.0388 2317.0908)" cx="2839.5" cy="1055.89" rx="16.5" ry="16.5"/>
				
					<ellipse transform="matrix(0.3827 -0.9239 0.9239 0.3827 747.4348 3230.4033)" cx="2791.03" cy="1055.89" rx="15.36" ry="15.36"/>
				
					<ellipse transform="matrix(0.1602 -0.9871 0.9871 0.1602 1261.0012 3593.9189)" cx="2742.57" cy="1055.89" rx="14.22" ry="14.22"/>
				
					<ellipse transform="matrix(0.2298 -0.9732 0.9732 0.2298 1047.4823 3435.3413)" cx="2694.11" cy="1055.89" rx="13.09" ry="13.09"/>
				
					<ellipse transform="matrix(0.9239 -0.3827 0.3827 0.9239 -202.685 1092.8245)" cx="2645.65" cy="1055.89" rx="11.95" ry="11.95"/>
				<circle cx="2597.19" cy="1055.89" r="10.82"/>
				<circle cx="2548.73" cy="1055.89" r="9.68"/>
				<circle cx="2500.27" cy="1055.89" r="8.54"/>
				<path d="M2459.22,1055.89c0,4.09-3.32,7.41-7.41,7.41c-4.09,0-7.41-3.32-7.41-7.41c0-4.09,3.32-7.41,7.41-7.41
					C2455.9,1048.49,2459.22,1051.8,2459.22,1055.89z"/>
				<path d="M2409.62,1055.89c0,3.46-2.81,6.27-6.27,6.27c-3.46,0-6.27-2.81-6.27-6.27c0-3.46,2.81-6.27,6.27-6.27
					C2406.81,1049.62,2409.62,1052.43,2409.62,1055.89z"/>
			</g>
			<g class="st1">
				<ellipse transform="matrix(0.7071 -0.7071 0.7071 0.7071 46.0573 2333.2375)" cx="2839.5" cy="1111.02" rx="16.5" ry="16.5"/>
				<circle cx="2791.03" cy="1111.02" r="15.36"/>
				
					<ellipse transform="matrix(0.5257 -0.8507 0.8507 0.5257 355.6274 2859.8994)" cx="2742.57" cy="1111.02" rx="14.22" ry="14.22"/>
				
					<ellipse transform="matrix(0.2298 -0.9732 0.9732 0.2298 993.8288 3477.8035)" cx="2694.11" cy="1111.02" rx="13.09" ry="13.09"/>
				
					<ellipse transform="matrix(0.7071 -0.7071 0.7071 0.7071 -10.7181 2196.1699)" cx="2645.65" cy="1111.02" rx="11.95" ry="11.95"/>
				<circle cx="2597.19" cy="1111.02" r="10.82"/>
				<circle cx="2548.73" cy="1111.02" r="9.68"/>
				<circle cx="2500.27" cy="1111.02" r="8.54"/>
				<path d="M2459.22,1111.02c0,4.09-3.32,7.41-7.41,7.41c-4.09,0-7.41-3.32-7.41-7.41c0-4.09,3.32-7.41,7.41-7.41
					C2455.9,1103.62,2459.22,1106.93,2459.22,1111.02z"/>
				<path d="M2409.62,1111.02c0,3.46-2.81,6.27-6.27,6.27c-3.46,0-6.27-2.81-6.27-6.27c0-3.46,2.81-6.27,6.27-6.27
					C2406.81,1104.75,2409.62,1107.56,2409.62,1111.02z"/>
			</g>
			<g class="st1">
				<circle cx="2839.5" cy="1166.15" r="16.5"/>
				<circle cx="2791.03" cy="1166.15" r="15.36"/>
				
					<ellipse transform="matrix(0.7071 -0.7071 0.7071 0.7071 -21.3119 2280.8503)" cx="2742.57" cy="1166.15" rx="14.22" ry="14.22"/>
				
					<ellipse transform="matrix(0.1602 -0.9871 0.9871 0.1602 1111.4703 3638.6792)" cx="2694.11" cy="1166.15" rx="13.09" ry="13.09"/>
				
					<ellipse transform="matrix(0.7071 -0.7071 0.7071 0.7071 -49.6996 2212.3167)" cx="2645.65" cy="1166.15" rx="11.95" ry="11.95"/>
				<circle cx="2597.19" cy="1166.15" r="10.82"/>
				<circle cx="2548.73" cy="1166.15" r="9.68"/>
				<circle cx="2500.27" cy="1166.15" r="8.54"/>
				<path d="M2459.22,1166.15c0,4.09-3.32,7.41-7.41,7.41s-7.41-3.32-7.41-7.41s3.32-7.41,7.41-7.41
					C2455.9,1158.74,2459.22,1162.06,2459.22,1166.15z"/>
				<path d="M2409.62,1166.15c0,3.46-2.81,6.27-6.27,6.27c-3.46,0-6.27-2.81-6.27-6.27c0-3.46,2.81-6.27,6.27-6.27
					C2406.81,1159.88,2409.62,1162.69,2409.62,1166.15z"/>
			</g>
		</g>
		<g>
			<defs>
				
					<ellipse id="SVGID_17_" transform="matrix(0.7071 -0.7071 0.7071 0.7071 -477.6092 840.8497)" cx="776.19" cy="996.95" rx="214.42" ry="214.42"/>
			</defs>
			<clipPath id="SVGID_7_">
				<use xlink:href="#SVGID_17_"  style="overflow:visible;"/>
			</clipPath>
			<g class="st13">
				<g>
					
						<ellipse transform="matrix(0.2287 -0.9735 0.9735 0.2287 -584.3649 1693.0162)" cx="776.19" cy="1215.27" rx="13.93" ry="13.93"/>
					
						<ellipse transform="matrix(0.7071 -0.7071 0.7071 0.7071 -620.1589 933.3438)" cx="816.57" cy="1215.27" rx="12.42" ry="12.42"/>
					
						<ellipse transform="matrix(0.1597 -0.9872 0.9872 0.1597 -479.6157 1867.0709)" cx="856.94" cy="1215.27" rx="10.9" ry="10.9"/>
					<ellipse transform="matrix(0.7672 -0.6415 0.6415 0.7672 -570.6097 858.549)" cx="897.32" cy="1215.27" rx="9.38" ry="9.38"/>
					<path d="M929.83,1215.27c0-4.34,3.52-7.86,7.86-7.86s7.86,3.52,7.86,7.86s-3.52,7.86-7.86,7.86S929.83,1219.61,929.83,1215.27z
						"/>
					<path d="M971.73,1215.27c0-3.5,2.84-6.34,6.34-6.34c3.5,0,6.34,2.84,6.34,6.34c0,3.5-2.84,6.34-6.34,6.34
						C974.57,1221.61,971.73,1218.77,971.73,1215.27z"/>
					<path d="M1013.62,1215.27c0-2.66,2.16-4.82,4.82-4.82c2.66,0,4.82,2.16,4.82,4.82c0,2.66-2.16,4.82-4.82,4.82
						C1015.78,1220.09,1013.62,1217.93,1013.62,1215.27z"/>
				</g>
				
					<ellipse transform="matrix(0.7071 -0.7071 0.7071 0.7071 -643.8103 876.2443)" cx="735.82" cy="1215.27" rx="12.42" ry="12.42"/>
				<ellipse transform="matrix(0.2306 -0.973 0.973 0.2306 -647.4521 1611.7026)" cx="695.44" cy="1215.27" rx="10.9" ry="10.9"/>
				<ellipse transform="matrix(0.7071 -0.7071 0.7071 0.7071 -667.4617 819.1449)" cx="655.06" cy="1215.27" rx="9.38" ry="9.38"/>
				<path d="M622.55,1215.27c0,4.34-3.52,7.86-7.86,7.86c-4.34,0-7.86-3.52-7.86-7.86s3.52-7.86,7.86-7.86
					C619.03,1207.41,622.55,1210.93,622.55,1215.27z"/>
				<path d="M580.66,1215.27c0,3.5-2.84,6.34-6.34,6.34c-3.5,0-6.34-2.84-6.34-6.34c0-3.5,2.84-6.34,6.34-6.34
					C577.82,1208.93,580.66,1211.77,580.66,1215.27z"/>
				<path d="M538.76,1215.27c0,2.66-2.16,4.82-4.82,4.82c-2.66,0-4.82-2.16-4.82-4.82c0-2.66,2.16-4.82,4.82-4.82
					C536.6,1210.45,538.76,1212.61,538.76,1215.27z"/>
				<g>
					
						<ellipse transform="matrix(0.7071 -0.7071 0.7071 0.7071 -601.1095 892.0052)" cx="776.19" cy="1171.61" rx="13.93" ry="13.93"/>
					
						<ellipse transform="matrix(0.2307 -0.973 0.973 0.2307 -511.8375 1695.8049)" cx="816.57" cy="1171.61" rx="12.42" ry="12.42"/>
					<ellipse transform="matrix(0.9247 -0.3807 0.3807 0.9247 -381.4623 414.3971)" cx="856.94" cy="1171.61" rx="10.9" ry="10.9"/>
					<ellipse transform="matrix(0.2134 -0.977 0.977 0.2134 -438.7844 1798.241)" cx="897.32" cy="1171.61" rx="9.38" ry="9.38"/>
					<path d="M929.83,1171.61c0-4.34,3.52-7.86,7.86-7.86s7.86,3.52,7.86,7.86c0,4.34-3.52,7.86-7.86,7.86
						S929.83,1175.95,929.83,1171.61z"/>
					<path d="M971.73,1171.61c0-3.5,2.84-6.34,6.34-6.34c3.5,0,6.34,2.84,6.34,6.34s-2.84,6.34-6.34,6.34
						C974.57,1177.95,971.73,1175.11,971.73,1171.61z"/>
					<path d="M1013.62,1171.61c0-2.66,2.16-4.82,4.82-4.82c2.66,0,4.82,2.16,4.82,4.82c0,2.66-2.16,4.82-4.82,4.82
						C1015.78,1176.43,1013.62,1174.27,1013.62,1171.61z"/>
				</g>
				
					<ellipse transform="matrix(0.2288 -0.9735 0.9735 0.2288 -573.0557 1619.871)" cx="735.82" cy="1171.61" rx="12.42" ry="12.42"/>
				<ellipse transform="matrix(0.7071 -0.7071 0.7071 0.7071 -624.7609 834.9057)" cx="695.44" cy="1171.61" rx="10.9" ry="10.9"/>
				<ellipse transform="matrix(0.229 -0.9734 0.9734 0.229 -635.4228 1540.9468)" cx="655.06" cy="1171.61" rx="9.38" ry="9.38"/>
				<path d="M622.55,1171.61c0,4.34-3.52,7.86-7.86,7.86c-4.34,0-7.86-3.52-7.86-7.86c0-4.34,3.52-7.86,7.86-7.86
					C619.03,1163.75,622.55,1167.26,622.55,1171.61z"/>
				<path d="M580.66,1171.61c0,3.5-2.84,6.34-6.34,6.34c-3.5,0-6.34-2.84-6.34-6.34s2.84-6.34,6.34-6.34
					C577.82,1165.26,580.66,1168.1,580.66,1171.61z"/>
				<path d="M538.76,1171.61c0,2.66-2.16,4.82-4.82,4.82c-2.66,0-4.82-2.16-4.82-4.82c0-2.66,2.16-4.82,4.82-4.82
					C536.6,1166.78,538.76,1168.94,538.76,1171.61z"/>
				<g>
					<circle cx="776.19" cy="1127.94" r="13.93"/>
					<circle cx="816.57" cy="1127.94" r="12.42"/>
					<circle cx="856.94" cy="1127.94" r="10.9"/>
					<circle cx="897.32" cy="1127.94" r="9.38"/>
					<circle cx="937.69" cy="1127.94" r="7.86"/>
					<path d="M971.73,1127.94c0-3.5,2.84-6.34,6.34-6.34c3.5,0,6.34,2.84,6.34,6.34c0,3.5-2.84,6.34-6.34,6.34
						C974.57,1134.28,971.73,1131.44,971.73,1127.94z"/>
					<path d="M1013.62,1127.94c0-2.66,2.16-4.82,4.82-4.82c2.66,0,4.82,2.16,4.82,4.82s-2.16,4.82-4.82,4.82
						C1015.78,1132.77,1013.62,1130.61,1013.62,1127.94z"/>
				</g>
				<circle cx="735.82" cy="1127.94" r="12.42"/>
				<circle cx="695.44" cy="1127.94" r="10.9"/>
				<circle cx="655.06" cy="1127.94" r="9.38"/>
				<path d="M622.55,1127.94c0,4.34-3.52,7.86-7.86,7.86c-4.34,0-7.86-3.52-7.86-7.86s3.52-7.86,7.86-7.86
					C619.03,1120.08,622.55,1123.6,622.55,1127.94z"/>
				<circle cx="574.31" cy="1127.94" r="6.34"/>
				<path d="M538.76,1127.94c0,2.66-2.16,4.82-4.82,4.82c-2.66,0-4.82-2.16-4.82-4.82s2.16-4.82,4.82-4.82
					C536.6,1123.12,538.76,1125.28,538.76,1127.94z"/>
				<g>
					
						<ellipse transform="matrix(0.2287 -0.9735 0.9735 0.2287 -456.8434 1591.9767)" cx="776.19" cy="1084.28" rx="13.93" ry="13.93"/>
					
						<ellipse transform="matrix(0.7071 -0.7071 0.7071 0.7071 -527.5337 894.9772)" cx="816.57" cy="1084.28" rx="12.42" ry="12.42"/>
					<ellipse transform="matrix(0.1597 -0.9872 0.9872 0.1597 -350.306 1757.0046)" cx="856.94" cy="1084.28" rx="10.9" ry="10.9"/>
					<ellipse transform="matrix(0.7672 -0.6415 0.6415 0.7672 -486.5845 828.049)" cx="897.32" cy="1084.28" rx="9.38" ry="9.38"/>
					<path d="M929.83,1084.28c0-4.34,3.52-7.86,7.86-7.86s7.86,3.52,7.86,7.86c0,4.34-3.52,7.86-7.86,7.86
						S929.83,1088.62,929.83,1084.28z"/>
					<path d="M971.73,1084.28c0-3.5,2.84-6.34,6.34-6.34c3.5,0,6.34,2.84,6.34,6.34s-2.84,6.34-6.34,6.34
						C974.57,1090.62,971.73,1087.78,971.73,1084.28z"/>
					<path d="M1013.62,1084.28c0-2.66,2.16-4.82,4.82-4.82c2.66,0,4.82,2.16,4.82,4.82c0,2.66-2.16,4.82-4.82,4.82
						C1015.78,1089.1,1013.62,1086.94,1013.62,1084.28z"/>
				</g>
				
					<ellipse transform="matrix(0.7071 -0.7071 0.7071 0.7071 -551.1851 837.8777)" cx="735.82" cy="1084.28" rx="12.42" ry="12.42"/>
				<ellipse transform="matrix(0.2306 -0.973 0.973 0.2306 -519.9911 1510.9197)" cx="695.44" cy="1084.28" rx="10.9" ry="10.9"/>
				<ellipse transform="matrix(0.7071 -0.7071 0.7071 0.7071 -574.8364 780.7783)" cx="655.06" cy="1084.28" rx="9.38" ry="9.38"/>
				<path d="M622.55,1084.28c0,4.34-3.52,7.86-7.86,7.86c-4.34,0-7.86-3.52-7.86-7.86c0-4.34,3.52-7.86,7.86-7.86
					C619.03,1076.42,622.55,1079.94,622.55,1084.28z"/>
				<path d="M580.66,1084.28c0,3.5-2.84,6.34-6.34,6.34c-3.5,0-6.34-2.84-6.34-6.34s2.84-6.34,6.34-6.34
					C577.82,1077.94,580.66,1080.78,580.66,1084.28z"/>
				<path d="M538.76,1084.28c0,2.66-2.16,4.82-4.82,4.82c-2.66,0-4.82-2.16-4.82-4.82c0-2.66,2.16-4.82,4.82-4.82
					C536.6,1079.45,538.76,1081.61,538.76,1084.28z"/>
				<g>
					
						<ellipse transform="matrix(0.7071 -0.7071 0.7071 0.7071 -508.4843 853.6385)" cx="776.19" cy="1040.61" rx="13.93" ry="13.93"/>
					
						<ellipse transform="matrix(0.2307 -0.973 0.973 0.2307 -384.3803 1595.0378)" cx="816.57" cy="1040.61" rx="12.42" ry="12.42"/>
					<ellipse transform="matrix(0.9247 -0.3807 0.3807 0.9247 -331.5999 404.5358)" cx="856.94" cy="1040.61" rx="10.9" ry="10.9"/>
					<ellipse transform="matrix(0.2134 -0.977 0.977 0.2134 -310.8097 1695.202)" cx="897.32" cy="1040.61" rx="9.38" ry="9.38"/>
					<path d="M929.83,1040.61c0-4.34,3.52-7.86,7.86-7.86s7.86,3.52,7.86,7.86c0,4.34-3.52,7.86-7.86,7.86
						S929.83,1044.96,929.83,1040.61z"/>
					<path d="M971.73,1040.61c0-3.5,2.84-6.34,6.34-6.34c3.5,0,6.34,2.84,6.34,6.34c0,3.5-2.84,6.34-6.34,6.34
						C974.57,1046.96,971.73,1044.12,971.73,1040.61z"/>
					<path d="M1013.62,1040.61c0-2.66,2.16-4.82,4.82-4.82c2.66,0,4.82,2.16,4.82,4.82c0,2.66-2.16,4.82-4.82,4.82
						C1015.78,1045.44,1013.62,1043.28,1013.62,1040.61z"/>
				</g>
				
					<ellipse transform="matrix(0.2288 -0.9735 0.9735 0.2288 -445.5378 1518.847)" cx="735.82" cy="1040.61" rx="12.42" ry="12.42"/>
				<ellipse transform="matrix(0.7071 -0.7071 0.7071 0.7071 -532.1357 796.5391)" cx="695.44" cy="1040.61" rx="10.9" ry="10.9"/>
				<ellipse transform="matrix(0.229 -0.9734 0.9734 0.229 -507.9123 1439.9539)" cx="655.06" cy="1040.61" rx="9.38" ry="9.38"/>
				<path d="M622.55,1040.61c0,4.34-3.52,7.86-7.86,7.86c-4.34,0-7.86-3.52-7.86-7.86c0-4.34,3.52-7.86,7.86-7.86
					C619.03,1032.75,622.55,1036.27,622.55,1040.61z"/>
				<path d="M580.66,1040.61c0,3.5-2.84,6.34-6.34,6.34c-3.5,0-6.34-2.84-6.34-6.34c0-3.5,2.84-6.34,6.34-6.34
					C577.82,1034.27,580.66,1037.11,580.66,1040.61z"/>
				<path d="M538.76,1040.61c0,2.66-2.16,4.82-4.82,4.82c-2.66,0-4.82-2.16-4.82-4.82c0-2.66,2.16-4.82,4.82-4.82
					C536.6,1035.79,538.76,1037.95,538.76,1040.61z"/>
				<g>
					
						<ellipse transform="matrix(0.2287 -0.9735 0.9735 0.2287 -371.829 1524.6169)" cx="776.19" cy="996.95" rx="13.93" ry="13.93"/>
					
						<ellipse transform="matrix(0.7071 -0.7071 0.7071 0.7071 -465.7835 869.3994)" cx="816.57" cy="996.95" rx="12.42" ry="12.42"/>
					<ellipse transform="matrix(0.1597 -0.9872 0.9872 0.1597 -264.0995 1683.6271)" cx="856.94" cy="996.95" rx="10.9" ry="10.9"/>
					<ellipse transform="matrix(0.7672 -0.6415 0.6415 0.7672 -430.5677 807.7157)" cx="897.32" cy="996.95" rx="9.38" ry="9.38"/>
					<path d="M929.83,996.95c0-4.34,3.52-7.86,7.86-7.86s7.86,3.52,7.86,7.86s-3.52,7.86-7.86,7.86S929.83,1001.29,929.83,996.95z"
						/>
					<path d="M971.73,996.95c0-3.5,2.84-6.34,6.34-6.34c3.5,0,6.34,2.84,6.34,6.34c0,3.5-2.84,6.34-6.34,6.34
						C974.57,1003.29,971.73,1000.45,971.73,996.95z"/>
					<path d="M1013.62,996.95c0-2.66,2.16-4.82,4.82-4.82c2.66,0,4.82,2.16,4.82,4.82c0,2.66-2.16,4.82-4.82,4.82
						C1015.78,1001.77,1013.62,999.61,1013.62,996.95z"/>
				</g>
				<ellipse transform="matrix(0.7071 -0.7071 0.7071 0.7071 -489.4349 812.2999)" cx="735.82" cy="996.95" rx="12.42" ry="12.42"/>
				<ellipse transform="matrix(0.2306 -0.973 0.973 0.2306 -435.0171 1443.731)" cx="695.44" cy="996.95" rx="10.9" ry="10.9"/>
				<ellipse transform="matrix(0.7071 -0.7071 0.7071 0.7071 -513.0862 755.2005)" cx="655.06" cy="996.95" rx="9.38" ry="9.38"/>
				<path d="M622.55,996.95c0,4.34-3.52,7.86-7.86,7.86c-4.34,0-7.86-3.52-7.86-7.86s3.52-7.86,7.86-7.86
					C619.03,989.09,622.55,992.61,622.55,996.95z"/>
				<path d="M580.66,996.95c0,3.5-2.84,6.34-6.34,6.34c-3.5,0-6.34-2.84-6.34-6.34c0-3.5,2.84-6.34,6.34-6.34
					C577.82,990.61,580.66,993.45,580.66,996.95z"/>
				<path d="M538.76,996.95c0,2.66-2.16,4.82-4.82,4.82c-2.66,0-4.82-2.16-4.82-4.82c0-2.66,2.16-4.82,4.82-4.82
					C536.6,992.13,538.76,994.29,538.76,996.95z"/>
				<g>
					
						<ellipse transform="matrix(0.7071 -0.7071 0.7071 0.7071 -446.7341 828.0608)" cx="776.19" cy="953.29" rx="13.93" ry="13.93"/>
					<ellipse transform="matrix(0.2307 -0.973 0.973 0.2307 -299.4088 1527.8596)" cx="816.57" cy="953.29" rx="12.42" ry="12.42"/>
					<ellipse transform="matrix(0.9247 -0.3807 0.3807 0.9247 -298.3584 397.9616)" cx="856.94" cy="953.29" rx="10.9" ry="10.9"/>
					<ellipse transform="matrix(0.2134 -0.977 0.977 0.2134 -225.4933 1626.5093)" cx="897.32" cy="953.29" rx="9.38" ry="9.38"/>
					<path d="M929.83,953.29c0-4.34,3.52-7.86,7.86-7.86s7.86,3.52,7.86,7.86c0,4.34-3.52,7.86-7.86,7.86
						S929.83,957.63,929.83,953.29z"/>
					<path d="M971.73,953.29c0-3.5,2.84-6.34,6.34-6.34c3.5,0,6.34,2.84,6.34,6.34c0,3.5-2.84,6.34-6.34,6.34
						C974.57,959.63,971.73,956.79,971.73,953.29z"/>
					<path d="M1013.62,953.29c0-2.66,2.16-4.82,4.82-4.82c2.66,0,4.82,2.16,4.82,4.82c0,2.66-2.16,4.82-4.82,4.82
						C1015.78,958.11,1013.62,955.95,1013.62,953.29z"/>
				</g>
				
					<ellipse transform="matrix(0.2288 -0.9735 0.9735 0.2288 -360.5258 1451.4976)" cx="735.82" cy="953.29" rx="12.42" ry="12.42"/>
				<ellipse transform="matrix(0.7071 -0.7071 0.7071 0.7071 -470.3855 770.9613)" cx="695.44" cy="953.29" rx="10.9" ry="10.9"/>
				<ellipse transform="matrix(0.229 -0.9734 0.9734 0.229 -422.9052 1372.6252)" cx="655.06" cy="953.29" rx="9.38" ry="9.38"/>
				<path d="M622.55,953.29c0,4.34-3.52,7.86-7.86,7.86c-4.34,0-7.86-3.52-7.86-7.86c0-4.34,3.52-7.86,7.86-7.86
					C619.03,945.43,622.55,948.94,622.55,953.29z"/>
				<path d="M580.66,953.29c0,3.5-2.84,6.34-6.34,6.34c-3.5,0-6.34-2.84-6.34-6.34c0-3.5,2.84-6.34,6.34-6.34
					C577.82,946.94,580.66,949.78,580.66,953.29z"/>
				<path d="M538.76,953.29c0,2.66-2.16,4.82-4.82,4.82c-2.66,0-4.82-2.16-4.82-4.82c0-2.66,2.16-4.82,4.82-4.82
					C536.6,948.46,538.76,950.62,538.76,953.29z"/>
				<g>
					<circle cx="776.19" cy="909.62" r="13.93"/>
					<circle cx="816.57" cy="909.62" r="12.42"/>
					<circle cx="856.94" cy="909.62" r="10.9"/>
					<circle cx="897.32" cy="909.62" r="9.38"/>
					<circle cx="937.69" cy="909.62" r="7.86"/>
					<path d="M971.73,909.62c0-3.5,2.84-6.34,6.34-6.34c3.5,0,6.34,2.84,6.34,6.34s-2.84,6.34-6.34,6.34
						C974.57,915.96,971.73,913.12,971.73,909.62z"/>
					<path d="M1013.62,909.62c0-2.66,2.16-4.82,4.82-4.82c2.66,0,4.82,2.16,4.82,4.82s-2.16,4.82-4.82,4.82
						C1015.78,914.45,1013.62,912.29,1013.62,909.62z"/>
				</g>
				<circle cx="735.82" cy="909.62" r="12.42"/>
				<circle cx="695.44" cy="909.62" r="10.9"/>
				<circle cx="655.06" cy="909.62" r="9.38"/>
				<path d="M622.55,909.62c0,4.34-3.52,7.86-7.86,7.86c-4.34,0-7.86-3.52-7.86-7.86s3.52-7.86,7.86-7.86
					C619.03,901.76,622.55,905.28,622.55,909.62z"/>
				<circle cx="574.31" cy="909.62" r="6.34"/>
				<path d="M538.76,909.62c0,2.66-2.16,4.82-4.82,4.82c-2.66,0-4.82-2.16-4.82-4.82s2.16-4.82,4.82-4.82
					C536.6,904.8,538.76,906.96,538.76,909.62z"/>
				<g>
					
						<ellipse transform="matrix(0.2287 -0.9735 0.9735 0.2287 -244.3075 1423.5773)" cx="776.19" cy="865.96" rx="13.93" ry="13.93"/>
					
						<ellipse transform="matrix(0.7071 -0.7071 0.7071 0.7071 -373.1583 831.0328)" cx="816.57" cy="865.96" rx="12.42" ry="12.42"/>
					<ellipse transform="matrix(0.1597 -0.9872 0.9872 0.1597 -134.7899 1573.5608)" cx="856.94" cy="865.96" rx="10.9" ry="10.9"/>
					<ellipse transform="matrix(0.7672 -0.6415 0.6415 0.7672 -346.5424 777.2158)" cx="897.32" cy="865.96" rx="9.38" ry="9.38"/>
					<path d="M929.83,865.96c0-4.34,3.52-7.86,7.86-7.86s7.86,3.52,7.86,7.86c0,4.34-3.52,7.86-7.86,7.86
						S929.83,870.3,929.83,865.96z"/>
					<path d="M971.73,865.96c0-3.5,2.84-6.34,6.34-6.34c3.5,0,6.34,2.84,6.34,6.34c0,3.5-2.84,6.34-6.34,6.34
						C974.57,872.3,971.73,869.46,971.73,865.96z"/>
					<path d="M1013.62,865.96c0-2.66,2.16-4.82,4.82-4.82c2.66,0,4.82,2.16,4.82,4.82c0,2.66-2.16,4.82-4.82,4.82
						C1015.78,870.78,1013.62,868.62,1013.62,865.96z"/>
				</g>
				<ellipse transform="matrix(0.7071 -0.7071 0.7071 0.7071 -396.8096 773.9333)" cx="735.82" cy="865.96" rx="12.42" ry="12.42"/>
				<ellipse transform="matrix(0.2306 -0.973 0.973 0.2306 -307.5562 1342.948)" cx="695.44" cy="865.96" rx="10.9" ry="10.9"/>
				<ellipse transform="matrix(0.7071 -0.7071 0.7071 0.7071 -420.461 716.8339)" cx="655.06" cy="865.96" rx="9.38" ry="9.38"/>
				<path d="M622.55,865.96c0,4.34-3.52,7.86-7.86,7.86c-4.34,0-7.86-3.52-7.86-7.86c0-4.34,3.52-7.86,7.86-7.86
					C619.03,858.1,622.55,861.62,622.55,865.96z"/>
				<path d="M580.66,865.96c0,3.5-2.84,6.34-6.34,6.34c-3.5,0-6.34-2.84-6.34-6.34c0-3.5,2.84-6.34,6.34-6.34
					C577.82,859.62,580.66,862.46,580.66,865.96z"/>
				<path d="M538.76,865.96c0,2.66-2.16,4.82-4.82,4.82c-2.66,0-4.82-2.16-4.82-4.82c0-2.66,2.16-4.82,4.82-4.82
					C536.6,861.13,538.76,863.29,538.76,865.96z"/>
				<g>
					
						<ellipse transform="matrix(0.7071 -0.7071 0.7071 0.7071 -354.1089 789.6942)" cx="776.19" cy="822.29" rx="13.93" ry="13.93"/>
					<ellipse transform="matrix(0.2307 -0.973 0.973 0.2307 -171.9516 1427.0924)" cx="816.57" cy="822.29" rx="12.42" ry="12.42"/>
					<ellipse transform="matrix(0.9247 -0.3807 0.3807 0.9247 -248.496 388.1003)" cx="856.94" cy="822.29" rx="10.9" ry="10.9"/>
					<ellipse transform="matrix(0.2134 -0.977 0.977 0.2134 -97.5186 1523.4702)" cx="897.32" cy="822.29" rx="9.38" ry="9.38"/>
					<path d="M929.83,822.29c0-4.34,3.52-7.86,7.86-7.86s7.86,3.52,7.86,7.86s-3.52,7.86-7.86,7.86S929.83,826.64,929.83,822.29z"/>
					<path d="M971.73,822.29c0-3.5,2.84-6.34,6.34-6.34c3.5,0,6.34,2.84,6.34,6.34c0,3.5-2.84,6.34-6.34,6.34
						C974.57,828.64,971.73,825.8,971.73,822.29z"/>
					<path d="M1013.62,822.29c0-2.66,2.16-4.82,4.82-4.82c2.66,0,4.82,2.16,4.82,4.82c0,2.66-2.16,4.82-4.82,4.82
						C1015.78,827.12,1013.62,824.96,1013.62,822.29z"/>
				</g>
				<ellipse transform="matrix(0.2288 -0.9735 0.9735 0.2288 -233.008 1350.4735)" cx="735.82" cy="822.29" rx="12.42" ry="12.42"/>
				<ellipse transform="matrix(0.7071 -0.7071 0.7071 0.7071 -377.7602 732.5947)" cx="695.44" cy="822.29" rx="10.9" ry="10.9"/>
				<ellipse transform="matrix(0.229 -0.9734 0.9734 0.229 -295.3947 1271.6323)" cx="655.06" cy="822.29" rx="9.38" ry="9.38"/>
				<path d="M622.55,822.29c0,4.34-3.52,7.86-7.86,7.86c-4.34,0-7.86-3.52-7.86-7.86s3.52-7.86,7.86-7.86
					C619.03,814.43,622.55,817.95,622.55,822.29z"/>
				<path d="M580.66,822.29c0,3.5-2.84,6.34-6.34,6.34c-3.5,0-6.34-2.84-6.34-6.34c0-3.5,2.84-6.34,6.34-6.34
					C577.82,815.95,580.66,818.79,580.66,822.29z"/>
				<path d="M538.76,822.29c0,2.66-2.16,4.82-4.82,4.82c-2.66,0-4.82-2.16-4.82-4.82c0-2.66,2.16-4.82,4.82-4.82
					C536.6,817.47,538.76,819.63,538.76,822.29z"/>
				<g>
					<circle cx="776.19" cy="778.63" r="13.93"/>
					<circle cx="816.57" cy="778.63" r="12.42"/>
					<circle cx="856.94" cy="778.63" r="10.9"/>
					<circle cx="897.32" cy="778.63" r="9.38"/>
					<circle cx="937.69" cy="778.63" r="7.86"/>
					<path d="M971.73,778.63c0-3.5,2.84-6.34,6.34-6.34c3.5,0,6.34,2.84,6.34,6.34s-2.84,6.34-6.34,6.34
						C974.57,784.97,971.73,782.13,971.73,778.63z"/>
					<path d="M1013.62,778.63c0-2.66,2.16-4.82,4.82-4.82c2.66,0,4.82,2.16,4.82,4.82c0,2.66-2.16,4.82-4.82,4.82
						C1015.78,783.45,1013.62,781.29,1013.62,778.63z"/>
				</g>
				<circle cx="735.82" cy="778.63" r="12.42"/>
				<circle cx="695.44" cy="778.63" r="10.9"/>
				<circle cx="655.06" cy="778.63" r="9.38"/>
				<path d="M622.55,778.63c0,4.34-3.52,7.86-7.86,7.86c-4.34,0-7.86-3.52-7.86-7.86s3.52-7.86,7.86-7.86
					C619.03,770.77,622.55,774.29,622.55,778.63z"/>
				<circle cx="574.31" cy="778.63" r="6.34"/>
				<path d="M538.76,778.63c0,2.66-2.16,4.82-4.82,4.82c-2.66,0-4.82-2.16-4.82-4.82c0-2.66,2.16-4.82,4.82-4.82
					C536.6,773.81,538.76,775.97,538.76,778.63z"/>
			</g>
		</g>
		<path class="st3" d="M3576.61,1869.07c0-4.58,3.71-8.29,8.29-8.29c4.58,0,8.29,3.71,8.29,8.29c0,4.58-3.71,8.29-8.29,8.29
			C3580.32,1877.36,3576.61,1873.65,3576.61,1869.07z"/>
		<path class="st3" d="M3539.04,1869.07c0-4.58,3.71-8.29,8.29-8.29c4.58,0,8.29,3.71,8.29,8.29c0,4.58-3.71,8.29-8.29,8.29
			C3542.76,1877.36,3539.04,1873.65,3539.04,1869.07z"/>
		<path class="st3" d="M3501.48,1869.07c0-4.58,3.71-8.29,8.29-8.29s8.29,3.71,8.29,8.29c0,4.58-3.71,8.29-8.29,8.29
			S3501.48,1873.65,3501.48,1869.07z"/>
		<path class="st14" d="M670.56,546.16c0-3.37,2.73-6.1,6.1-6.1s6.1,2.73,6.1,6.1c0,3.37-2.73,6.1-6.1,6.1
			S670.56,549.53,670.56,546.16z"/>
		<circle class="st14" cx="676.66" cy="510.87" r="6.1"/>
		<circle class="st14" cx="676.66" cy="475.58" r="6.1"/>
		<g class="st0">
			
				<ellipse transform="matrix(0.7071 -0.7071 0.7071 0.7071 468.3994 2618.0647)" class="st15" cx="3394.48" cy="743.62" rx="232.76" ry="232.76"/>
			<circle class="st15" cx="3394.48" cy="743.62" r="184.25"/>
			
				<ellipse transform="matrix(0.7071 -0.7071 0.7071 0.7071 468.3994 2618.0647)" class="st15" cx="3394.48" cy="743.62" rx="135.74" ry="135.74"/>
			
				<ellipse transform="matrix(0.7071 -0.7071 0.7071 0.7071 468.3994 2618.0647)" class="st15" cx="3394.48" cy="743.62" rx="87.24" ry="87.24"/>
			<circle class="st15" cx="3394.48" cy="743.62" r="38.73"/>
		</g>
		<circle class="st5" cx="3355.95" cy="775.54" r="243.89"/>
		<path class="st16" d="M3145.01,299.57c47.76,0,86.47,38.71,86.47,86.47s-38.71,86.47-86.47,86.47"/>
		<path class="st16" d="M905.37,1381.7c0,47.76-38.71,86.47-86.47,86.47c-47.76,0-86.47-38.71-86.47-86.47"/>
		<line class="st10" x1="2126.61" y1="811.42" x2="2068.82" y2="753.64"/>
		<line class="st10" x1="2033.18" y1="811.42" x2="1975.39" y2="753.64"/>
		<line class="st10" x1="1939.75" y1="811.42" x2="1881.96" y2="753.64"/>
		<line class="st10" x1="1846.32" y1="811.42" x2="1788.53" y2="753.64"/>
		<g>
			<path d="M1496.93,61.03c0,3.47-2.81,6.28-6.28,6.28s-6.28-2.81-6.28-6.28c0-3.47,2.81-6.28,6.28-6.28
				S1496.93,57.56,1496.93,61.03z"/>
			<path d="M1496.93,98.33c0,3.47-2.81,6.28-6.28,6.28s-6.28-2.81-6.28-6.28c0-3.47,2.81-6.28,6.28-6.28
				S1496.93,94.86,1496.93,98.33z"/>
			<path d="M1496.93,135.62c0,3.47-2.81,6.28-6.28,6.28s-6.28-2.81-6.28-6.28c0-3.47,2.81-6.28,6.28-6.28
				S1496.93,132.15,1496.93,135.62z"/>
			<path d="M1496.93,172.92c0,3.47-2.81,6.28-6.28,6.28s-6.28-2.81-6.28-6.28c0-3.47,2.81-6.28,6.28-6.28
				S1496.93,169.45,1496.93,172.92z"/>
			<path d="M1496.93,210.21c0,3.47-2.81,6.28-6.28,6.28s-6.28-2.81-6.28-6.28s2.81-6.28,6.28-6.28S1496.93,206.74,1496.93,210.21z"
				/>
			<path d="M1496.93,247.5c0,3.47-2.81,6.28-6.28,6.28s-6.28-2.81-6.28-6.28c0-3.47,2.81-6.28,6.28-6.28
				S1496.93,244.03,1496.93,247.5z"/>
			<path d="M1496.93,284.8c0,3.47-2.81,6.28-6.28,6.28s-6.28-2.81-6.28-6.28s2.81-6.28,6.28-6.28S1496.93,281.33,1496.93,284.8z"/>
			<path d="M1496.93,322.09c0,3.47-2.81,6.28-6.28,6.28s-6.28-2.81-6.28-6.28s2.81-6.28,6.28-6.28S1496.93,318.62,1496.93,322.09z"
				/>
			<path d="M1496.93,359.39c0,3.47-2.81,6.28-6.28,6.28s-6.28-2.81-6.28-6.28c0-3.47,2.81-6.28,6.28-6.28
				S1496.93,355.92,1496.93,359.39z"/>
			<path d="M1496.93,396.68c0,3.47-2.81,6.28-6.28,6.28s-6.28-2.81-6.28-6.28s2.81-6.28,6.28-6.28S1496.93,393.21,1496.93,396.68z"
				/>
			<path d="M1496.93,433.98c0,3.47-2.81,6.28-6.28,6.28s-6.28-2.81-6.28-6.28c0-3.47,2.81-6.28,6.28-6.28
				S1496.93,430.51,1496.93,433.98z"/>
			<path d="M1496.93,471.27c0,3.47-2.81,6.28-6.28,6.28s-6.28-2.81-6.28-6.28s2.81-6.28,6.28-6.28S1496.93,467.8,1496.93,471.27z"/>
			<path d="M1496.93,508.57c0,3.47-2.81,6.28-6.28,6.28s-6.28-2.81-6.28-6.28c0-3.47,2.81-6.28,6.28-6.28
				S1496.93,505.1,1496.93,508.57z"/>
			<path d="M1534.42,98.33c0,3.47-2.81,6.28-6.28,6.28s-6.28-2.81-6.28-6.28c0-3.47,2.81-6.28,6.28-6.28
				S1534.42,94.86,1534.42,98.33z"/>
			<path d="M1534.42,135.62c0,3.47-2.81,6.28-6.28,6.28s-6.28-2.81-6.28-6.28c0-3.47,2.81-6.28,6.28-6.28
				S1534.42,132.15,1534.42,135.62z"/>
			<path d="M1534.42,172.92c0,3.47-2.81,6.28-6.28,6.28s-6.28-2.81-6.28-6.28c0-3.47,2.81-6.28,6.28-6.28
				S1534.42,169.45,1534.42,172.92z"/>
			<path d="M1534.42,210.21c0,3.47-2.81,6.28-6.28,6.28s-6.28-2.81-6.28-6.28s2.81-6.28,6.28-6.28S1534.42,206.74,1534.42,210.21z"
				/>
			<path d="M1534.42,247.5c0,3.47-2.81,6.28-6.28,6.28s-6.28-2.81-6.28-6.28c0-3.47,2.81-6.28,6.28-6.28
				S1534.42,244.03,1534.42,247.5z"/>
			<path d="M1534.42,284.8c0,3.47-2.81,6.28-6.28,6.28s-6.28-2.81-6.28-6.28s2.81-6.28,6.28-6.28S1534.42,281.33,1534.42,284.8z"/>
			<path d="M1534.42,322.09c0,3.47-2.81,6.28-6.28,6.28s-6.28-2.81-6.28-6.28s2.81-6.28,6.28-6.28S1534.42,318.62,1534.42,322.09z"
				/>
			<path d="M1534.42,359.39c0,3.47-2.81,6.28-6.28,6.28s-6.28-2.81-6.28-6.28c0-3.47,2.81-6.28,6.28-6.28
				S1534.42,355.92,1534.42,359.39z"/>
			<path d="M1534.42,396.68c0,3.47-2.81,6.28-6.28,6.28c-3.47,0-6.28-2.81-6.28-6.28s2.81-6.28,6.28-6.28
				C1531.61,390.4,1534.42,393.21,1534.42,396.68z"/>
			<path d="M1534.42,433.98c0,3.47-2.81,6.28-6.28,6.28c-3.47,0-6.28-2.81-6.28-6.28c0-3.47,2.81-6.28,6.28-6.28
				C1531.61,427.69,1534.42,430.51,1534.42,433.98z"/>
			<path d="M1534.42,471.27c0,3.47-2.81,6.28-6.28,6.28c-3.47,0-6.28-2.81-6.28-6.28s2.81-6.28,6.28-6.28
				C1531.61,464.99,1534.42,467.8,1534.42,471.27z"/>
			<path d="M1534.42,508.57c0,3.47-2.81,6.28-6.28,6.28c-3.47,0-6.28-2.81-6.28-6.28c0-3.47,2.81-6.28,6.28-6.28
				C1531.61,502.28,1534.42,505.1,1534.42,508.57z"/>
			<path d="M1571.92,135.62c0,3.47-2.81,6.28-6.28,6.28c-3.47,0-6.28-2.81-6.28-6.28c0-3.47,2.81-6.28,6.28-6.28
				C1569.11,129.34,1571.92,132.15,1571.92,135.62z"/>
			<path d="M1571.92,172.92c0,3.47-2.81,6.28-6.28,6.28c-3.47,0-6.28-2.81-6.28-6.28c0-3.47,2.81-6.28,6.28-6.28
				C1569.11,166.63,1571.92,169.45,1571.92,172.92z"/>
			<path d="M1571.92,210.21c0,3.47-2.81,6.28-6.28,6.28c-3.47,0-6.28-2.81-6.28-6.28s2.81-6.28,6.28-6.28
				C1569.11,203.93,1571.92,206.74,1571.92,210.21z"/>
			<path d="M1571.92,247.5c0,3.47-2.81,6.28-6.28,6.28c-3.47,0-6.28-2.81-6.28-6.28c0-3.47,2.81-6.28,6.28-6.28
				C1569.11,241.22,1571.92,244.03,1571.92,247.5z"/>
			<path d="M1571.92,284.8c0,3.47-2.81,6.28-6.28,6.28c-3.47,0-6.28-2.81-6.28-6.28s2.81-6.28,6.28-6.28
				C1569.11,278.52,1571.92,281.33,1571.92,284.8z"/>
			<path d="M1571.92,322.09c0,3.47-2.81,6.28-6.28,6.28c-3.47,0-6.28-2.81-6.28-6.28s2.81-6.28,6.28-6.28
				C1569.11,315.81,1571.92,318.62,1571.92,322.09z"/>
			<path d="M1571.92,359.39c0,3.47-2.81,6.28-6.28,6.28c-3.47,0-6.28-2.81-6.28-6.28c0-3.47,2.81-6.28,6.28-6.28
				C1569.11,353.11,1571.92,355.92,1571.92,359.39z"/>
			<path d="M1571.92,396.68c0,3.47-2.81,6.28-6.28,6.28c-3.47,0-6.28-2.81-6.28-6.28s2.81-6.28,6.28-6.28
				C1569.11,390.4,1571.92,393.21,1571.92,396.68z"/>
			<path d="M1571.92,433.98c0,3.47-2.81,6.28-6.28,6.28c-3.47,0-6.28-2.81-6.28-6.28c0-3.47,2.81-6.28,6.28-6.28
				C1569.11,427.69,1571.92,430.51,1571.92,433.98z"/>
			<path d="M1571.92,471.27c0,3.47-2.81,6.28-6.28,6.28c-3.47,0-6.28-2.81-6.28-6.28s2.81-6.28,6.28-6.28
				C1569.11,464.99,1571.92,467.8,1571.92,471.27z"/>
			<path d="M1571.92,508.57c0,3.47-2.81,6.28-6.28,6.28c-3.47,0-6.28-2.81-6.28-6.28c0-3.47,2.81-6.28,6.28-6.28
				C1569.11,502.28,1571.92,505.1,1571.92,508.57z"/>
			<path d="M1609.42,172.92c0,3.47-2.81,6.28-6.28,6.28c-3.47,0-6.28-2.81-6.28-6.28c0-3.47,2.81-6.28,6.28-6.28
				C1606.6,166.63,1609.42,169.45,1609.42,172.92z"/>
			<path d="M1609.42,210.21c0,3.47-2.81,6.28-6.28,6.28c-3.47,0-6.28-2.81-6.28-6.28s2.81-6.28,6.28-6.28
				C1606.6,203.93,1609.42,206.74,1609.42,210.21z"/>
			<path d="M1609.42,247.5c0,3.47-2.81,6.28-6.28,6.28c-3.47,0-6.28-2.81-6.28-6.28c0-3.47,2.81-6.28,6.28-6.28
				C1606.6,241.22,1609.42,244.03,1609.42,247.5z"/>
			<path d="M1609.42,284.8c0,3.47-2.81,6.28-6.28,6.28c-3.47,0-6.28-2.81-6.28-6.28s2.81-6.28,6.28-6.28
				C1606.6,278.52,1609.42,281.33,1609.42,284.8z"/>
			<path d="M1609.42,322.09c0,3.47-2.81,6.28-6.28,6.28c-3.47,0-6.28-2.81-6.28-6.28s2.81-6.28,6.28-6.28
				C1606.6,315.81,1609.42,318.62,1609.42,322.09z"/>
			<path d="M1609.42,359.39c0,3.47-2.81,6.28-6.28,6.28c-3.47,0-6.28-2.81-6.28-6.28c0-3.47,2.81-6.28,6.28-6.28
				C1606.6,353.11,1609.42,355.92,1609.42,359.39z"/>
			<path d="M1609.42,396.68c0,3.47-2.81,6.28-6.28,6.28c-3.47,0-6.28-2.81-6.28-6.28s2.81-6.28,6.28-6.28
				C1606.6,390.4,1609.42,393.21,1609.42,396.68z"/>
			<path d="M1609.42,433.98c0,3.47-2.81,6.28-6.28,6.28c-3.47,0-6.28-2.81-6.28-6.28c0-3.47,2.81-6.28,6.28-6.28
				C1606.6,427.69,1609.42,430.51,1609.42,433.98z"/>
			<path d="M1609.42,471.27c0,3.47-2.81,6.28-6.28,6.28c-3.47,0-6.28-2.81-6.28-6.28s2.81-6.28,6.28-6.28
				C1606.6,464.99,1609.42,467.8,1609.42,471.27z"/>
			<path d="M1609.42,508.57c0,3.47-2.81,6.28-6.28,6.28c-3.47,0-6.28-2.81-6.28-6.28c0-3.47,2.81-6.28,6.28-6.28
				C1606.6,502.28,1609.42,505.1,1609.42,508.57z"/>
			<path d="M1646.92,210.21c0,3.47-2.81,6.28-6.28,6.28c-3.47,0-6.28-2.81-6.28-6.28s2.81-6.28,6.28-6.28
				C1644.1,203.93,1646.92,206.74,1646.92,210.21z"/>
			<path d="M1646.92,247.5c0,3.47-2.81,6.28-6.28,6.28c-3.47,0-6.28-2.81-6.28-6.28c0-3.47,2.81-6.28,6.28-6.28
				C1644.1,241.22,1646.92,244.03,1646.92,247.5z"/>
			<path d="M1646.92,284.8c0,3.47-2.81,6.28-6.28,6.28c-3.47,0-6.28-2.81-6.28-6.28s2.81-6.28,6.28-6.28
				C1644.1,278.52,1646.92,281.33,1646.92,284.8z"/>
			<path d="M1646.92,322.09c0,3.47-2.81,6.28-6.28,6.28c-3.47,0-6.28-2.81-6.28-6.28s2.81-6.28,6.28-6.28
				C1644.1,315.81,1646.92,318.62,1646.92,322.09z"/>
			<path d="M1646.92,359.39c0,3.47-2.81,6.28-6.28,6.28c-3.47,0-6.28-2.81-6.28-6.28c0-3.47,2.81-6.28,6.28-6.28
				C1644.1,353.11,1646.92,355.92,1646.92,359.39z"/>
			<path d="M1646.92,396.68c0,3.47-2.81,6.28-6.28,6.28c-3.47,0-6.28-2.81-6.28-6.28s2.81-6.28,6.28-6.28
				C1644.1,390.4,1646.92,393.21,1646.92,396.68z"/>
			<path d="M1646.92,433.98c0,3.47-2.81,6.28-6.28,6.28c-3.47,0-6.28-2.81-6.28-6.28c0-3.47,2.81-6.28,6.28-6.28
				C1644.1,427.69,1646.92,430.51,1646.92,433.98z"/>
			<path d="M1646.92,471.27c0,3.47-2.81,6.28-6.28,6.28c-3.47,0-6.28-2.81-6.28-6.28s2.81-6.28,6.28-6.28
				C1644.1,464.99,1646.92,467.8,1646.92,471.27z"/>
			<path d="M1646.92,508.57c0,3.47-2.81,6.28-6.28,6.28c-3.47,0-6.28-2.81-6.28-6.28c0-3.47,2.81-6.28,6.28-6.28
				C1644.1,502.28,1646.92,505.1,1646.92,508.57z"/>
			<path d="M1684.41,247.5c0,3.47-2.81,6.28-6.28,6.28s-6.28-2.81-6.28-6.28c0-3.47,2.81-6.28,6.28-6.28
				S1684.41,244.03,1684.41,247.5z"/>
			<path d="M1684.41,284.8c0,3.47-2.81,6.28-6.28,6.28s-6.28-2.81-6.28-6.28s2.81-6.28,6.28-6.28S1684.41,281.33,1684.41,284.8z"/>
			<path d="M1684.41,322.09c0,3.47-2.81,6.28-6.28,6.28s-6.28-2.81-6.28-6.28s2.81-6.28,6.28-6.28S1684.41,318.62,1684.41,322.09z"
				/>
			<path d="M1684.41,359.39c0,3.47-2.81,6.28-6.28,6.28s-6.28-2.81-6.28-6.28c0-3.47,2.81-6.28,6.28-6.28
				S1684.41,355.92,1684.41,359.39z"/>
			<path d="M1684.41,396.68c0,3.47-2.81,6.28-6.28,6.28s-6.28-2.81-6.28-6.28s2.81-6.28,6.28-6.28S1684.41,393.21,1684.41,396.68z"
				/>
			<path d="M1684.41,433.98c0,3.47-2.81,6.28-6.28,6.28s-6.28-2.81-6.28-6.28c0-3.47,2.81-6.28,6.28-6.28
				S1684.41,430.51,1684.41,433.98z"/>
			<path d="M1684.41,471.27c0,3.47-2.81,6.28-6.28,6.28s-6.28-2.81-6.28-6.28s2.81-6.28,6.28-6.28S1684.41,467.8,1684.41,471.27z"/>
			<path d="M1684.41,508.57c0,3.47-2.81,6.28-6.28,6.28s-6.28-2.81-6.28-6.28c0-3.47,2.81-6.28,6.28-6.28
				S1684.41,505.1,1684.41,508.57z"/>
			<path d="M1721.91,284.8c0,3.47-2.81,6.28-6.28,6.28s-6.28-2.81-6.28-6.28c0-3.47,2.81-6.28,6.28-6.28
				S1721.91,281.33,1721.91,284.8z"/>
			<path d="M1721.91,322.09c0,3.47-2.81,6.28-6.28,6.28s-6.28-2.81-6.28-6.28s2.81-6.28,6.28-6.28S1721.91,318.62,1721.91,322.09z"
				/>
			<path d="M1721.91,359.39c0,3.47-2.81,6.28-6.28,6.28s-6.28-2.81-6.28-6.28c0-3.47,2.81-6.28,6.28-6.28
				S1721.91,355.92,1721.91,359.39z"/>
			<path d="M1721.91,396.68c0,3.47-2.81,6.28-6.28,6.28s-6.28-2.81-6.28-6.28s2.81-6.28,6.28-6.28S1721.91,393.21,1721.91,396.68z"
				/>
			<path d="M1721.91,433.98c0,3.47-2.81,6.28-6.28,6.28s-6.28-2.81-6.28-6.28c0-3.47,2.81-6.28,6.28-6.28
				S1721.91,430.51,1721.91,433.98z"/>
			<path d="M1721.91,471.27c0,3.47-2.81,6.28-6.28,6.28s-6.28-2.81-6.28-6.28s2.81-6.28,6.28-6.28S1721.91,467.8,1721.91,471.27z"/>
			<path d="M1721.91,508.57c0,3.47-2.81,6.28-6.28,6.28s-6.28-2.81-6.28-6.28c0-3.47,2.81-6.28,6.28-6.28
				S1721.91,505.1,1721.91,508.57z"/>
			<path d="M1759.41,322.09c0,3.47-2.81,6.28-6.28,6.28c-3.47,0-6.28-2.81-6.28-6.28s2.81-6.28,6.28-6.28
				C1756.59,315.81,1759.41,318.62,1759.41,322.09z"/>
			<path d="M1759.41,359.39c0,3.47-2.81,6.28-6.28,6.28c-3.47,0-6.28-2.81-6.28-6.28c0-3.47,2.81-6.28,6.28-6.28
				C1756.59,353.11,1759.41,355.92,1759.41,359.39z"/>
			<path d="M1759.41,396.68c0,3.47-2.81,6.28-6.28,6.28c-3.47,0-6.28-2.81-6.28-6.28s2.81-6.28,6.28-6.28
				C1756.59,390.4,1759.41,393.21,1759.41,396.68z"/>
			<path d="M1759.41,433.98c0,3.47-2.81,6.28-6.28,6.28c-3.47,0-6.28-2.81-6.28-6.28c0-3.47,2.81-6.28,6.28-6.28
				C1756.59,427.69,1759.41,430.51,1759.41,433.98z"/>
			<path d="M1759.41,471.27c0,3.47-2.81,6.28-6.28,6.28c-3.47,0-6.28-2.81-6.28-6.28s2.81-6.28,6.28-6.28
				C1756.59,464.99,1759.41,467.8,1759.41,471.27z"/>
			<path d="M1759.41,508.57c0,3.47-2.81,6.28-6.28,6.28c-3.47,0-6.28-2.81-6.28-6.28c0-3.47,2.81-6.28,6.28-6.28
				C1756.59,502.28,1759.41,505.1,1759.41,508.57z"/>
			<path d="M1796.9,359.39c0,3.47-2.81,6.28-6.28,6.28c-3.47,0-6.28-2.81-6.28-6.28c0-3.47,2.81-6.28,6.28-6.28
				C1794.09,353.11,1796.9,355.92,1796.9,359.39z"/>
			<path d="M1796.9,396.68c0,3.47-2.81,6.28-6.28,6.28c-3.47,0-6.28-2.81-6.28-6.28s2.81-6.28,6.28-6.28
				C1794.09,390.4,1796.9,393.21,1796.9,396.68z"/>
			<path d="M1796.9,433.98c0,3.47-2.81,6.28-6.28,6.28c-3.47,0-6.28-2.81-6.28-6.28c0-3.47,2.81-6.28,6.28-6.28
				C1794.09,427.69,1796.9,430.51,1796.9,433.98z"/>
			<path d="M1796.9,471.27c0,3.47-2.81,6.28-6.28,6.28c-3.47,0-6.28-2.81-6.28-6.28s2.81-6.28,6.28-6.28
				C1794.09,464.99,1796.9,467.8,1796.9,471.27z"/>
			<path d="M1796.9,508.57c0,3.47-2.81,6.28-6.28,6.28c-3.47,0-6.28-2.81-6.28-6.28c0-3.47,2.81-6.28,6.28-6.28
				C1794.09,502.28,1796.9,505.1,1796.9,508.57z"/>
			<path d="M1834.4,396.68c0,3.47-2.81,6.28-6.28,6.28c-3.47,0-6.28-2.81-6.28-6.28s2.81-6.28,6.28-6.28
				C1831.59,390.4,1834.4,393.21,1834.4,396.68z"/>
			<path d="M1834.4,433.98c0,3.47-2.81,6.28-6.28,6.28c-3.47,0-6.28-2.81-6.28-6.28c0-3.47,2.81-6.28,6.28-6.28
				C1831.59,427.69,1834.4,430.51,1834.4,433.98z"/>
			<path d="M1834.4,471.27c0,3.47-2.81,6.28-6.28,6.28c-3.47,0-6.28-2.81-6.28-6.28s2.81-6.28,6.28-6.28
				C1831.59,464.99,1834.4,467.8,1834.4,471.27z"/>
			<path d="M1834.4,508.57c0,3.47-2.81,6.28-6.28,6.28c-3.47,0-6.28-2.81-6.28-6.28c0-3.47,2.81-6.28,6.28-6.28
				C1831.59,502.28,1834.4,505.1,1834.4,508.57z"/>
			<path d="M1871.9,433.98c0,3.47-2.81,6.28-6.28,6.28s-6.28-2.81-6.28-6.28c0-3.47,2.81-6.28,6.28-6.28
				S1871.9,430.51,1871.9,433.98z"/>
			<path d="M1871.9,471.27c0,3.47-2.81,6.28-6.28,6.28s-6.28-2.81-6.28-6.28s2.81-6.28,6.28-6.28S1871.9,467.8,1871.9,471.27z"/>
			<path d="M1871.9,508.57c0,3.47-2.81,6.28-6.28,6.28s-6.28-2.81-6.28-6.28c0-3.47,2.81-6.28,6.28-6.28S1871.9,505.1,1871.9,508.57
				z"/>
			<path d="M1909.4,471.27c0,3.47-2.81,6.28-6.28,6.28s-6.28-2.81-6.28-6.28s2.81-6.28,6.28-6.28S1909.4,467.8,1909.4,471.27z"/>
			<path d="M1909.4,508.57c0,3.47-2.81,6.28-6.28,6.28s-6.28-2.81-6.28-6.28c0-3.47,2.81-6.28,6.28-6.28S1909.4,505.1,1909.4,508.57
				z"/>
			<path d="M1946.89,508.57c0,3.47-2.81,6.28-6.28,6.28c-3.47,0-6.28-2.81-6.28-6.28c0-3.47,2.81-6.28,6.28-6.28
				C1944.08,502.28,1946.89,505.1,1946.89,508.57z"/>
		</g>
		<polygon class="st17" points="1895.77,206.42 1925.32,176.87 1954.87,206.42 2002.15,159.14 1972.6,129.59 2002.15,100.04 
			1954.87,52.76 1925.32,82.31 1895.77,52.76 1848.49,100.04 1878.04,129.59 1848.49,159.14 		"/>
		<g>
			<defs>
				<polygon id="SVGID_19_" points="1895.77,206.42 1925.32,176.87 1954.87,206.42 2002.15,159.14 1972.6,129.59 2002.15,100.04 
					1954.87,52.76 1925.32,82.31 1895.77,52.76 1848.49,100.04 1878.04,129.59 1848.49,159.14 				"/>
			</defs>
			<clipPath id="SVGID_8_">
				<use xlink:href="#SVGID_19_"  style="overflow:visible;"/>
			</clipPath>
			<g class="st18">
				<line class="st5" x1="1998.88" y1="252.97" x2="1998.88" y2="6.2"/>
				<line class="st5" x1="1977.86" y1="252.97" x2="1977.86" y2="6.2"/>
				<line class="st5" x1="1956.84" y1="252.97" x2="1956.84" y2="6.2"/>
				<line class="st5" x1="1935.83" y1="252.97" x2="1935.83" y2="6.2"/>
				<line class="st5" x1="1914.81" y1="252.97" x2="1914.81" y2="6.2"/>
				<line class="st5" x1="1893.79" y1="252.97" x2="1893.79" y2="6.2"/>
				<line class="st5" x1="1872.78" y1="252.97" x2="1872.78" y2="6.2"/>
				<line class="st5" x1="1851.76" y1="252.97" x2="1851.76" y2="6.2"/>
			</g>
			<use xlink:href="#SVGID_19_"  style="overflow:visible;fill:none;stroke:#000000;stroke-width:5;stroke-miterlimit:10;"/>
		</g>
	</g>
</g>
<g id="elements_copy">
	<g>
		<rect x="-38.71" y="-123.51" class="st2" width="3840" height="2160"/>
		<polygon class="st3" points="2415.53,720.42 2432.2,703.75 2448.87,720.42 2475.54,693.74 2458.87,677.07 2475.54,660.4 
			2448.87,633.73 2432.2,650.4 2415.53,633.73 2388.85,660.4 2405.52,677.07 2388.85,693.74 		"/>
		<polygon class="st3" points="1408.15,106.17 1408.15,553.71 1858.12,553.71 		"/>
		<path class="st4" d="M2255.14,311.68c21.72,19.91,55.05,19.91,76.76,0l0,0c21.72-19.91,55.05-19.91,76.76,0l0,0
			c21.72,19.91,55.05,19.91,76.76,0l0,0c21.72-19.91,55.05-19.91,76.76,0h0c21.72,19.91,55.05,19.91,76.76,0h0
			c21.72-19.91,55.05-19.91,76.76,0l0,0c21.72,19.91,55.05,19.91,76.76,0l0,0c21.72-19.91,55.05-19.91,76.76,0l0,0
			c21.72,19.91,55.05,19.91,76.76,0"/>
		<polygon points="324.96,67.17 392.79,106.33 392.79,28.01 		"/>
		<polygon points="257.12,67.17 324.96,106.33 324.96,28.01 		"/>
		<polyline class="st5" points="2668.59,1844.2 2600.75,1805.04 2600.75,1883.37 2668.59,1844.2 		"/>
		<polygon class="st5" points="2736.42,1844.2 2668.59,1805.04 2668.59,1883.37 		"/>
		<g class="st0">
			<rect x="1359.61" y="986.32" class="st6" width="97.09" height="97.09"/>
			<rect x="1329.97" y="956.68" class="st6" width="156.36" height="156.36"/>
			<rect x="1300.33" y="927.04" class="st6" width="215.64" height="215.64"/>
			<rect x="1270.69" y="897.4" class="st6" width="274.92" height="274.92"/>
			<rect x="1241.05" y="867.76" class="st6" width="334.19" height="334.19"/>
			<rect x="1211.41" y="838.12" class="st6" width="393.47" height="393.47"/>
			<rect x="1181.77" y="808.49" class="st6" width="452.75" height="452.75"/>
			<rect x="1152.14" y="778.85" class="st6" width="512.02" height="512.02"/>
		</g>
		<g class="st0">
			<defs>
				<circle id="SVGID_5_" cx="2699.56" cy="347.33" r="280.62"/>
			</defs>
			<clipPath id="SVGID_9_" class="st1">
				<use xlink:href="#SVGID_5_"  style="overflow:visible;"/>
			</clipPath>
			<g class="st19">
				<line class="st8" x1="3086.33" y1="357.42" x2="2689.47" y2="-39.44"/>
				<line class="st8" x1="3054.94" y1="388.81" x2="2658.08" y2="-8.05"/>
				<line class="st8" x1="3023.55" y1="420.2" x2="2626.69" y2="23.34"/>
				<line class="st8" x1="2992.16" y1="451.59" x2="2595.3" y2="54.73"/>
				<line class="st8" x1="2960.77" y1="482.98" x2="2563.91" y2="86.12"/>
				<line class="st8" x1="2929.38" y1="514.37" x2="2532.52" y2="117.51"/>
				<line class="st8" x1="2897.99" y1="545.76" x2="2501.13" y2="148.9"/>
				<line class="st8" x1="2866.6" y1="577.15" x2="2469.74" y2="180.29"/>
				<line class="st8" x1="2835.21" y1="608.54" x2="2438.35" y2="211.68"/>
				<line class="st8" x1="2803.82" y1="639.93" x2="2406.96" y2="243.07"/>
				<line class="st8" x1="2772.43" y1="671.32" x2="2375.57" y2="274.46"/>
				<line class="st8" x1="2741.04" y1="702.71" x2="2344.19" y2="305.85"/>
				<line class="st8" x1="2709.65" y1="734.1" x2="2312.8" y2="337.24"/>
			</g>
		</g>
		<circle class="st3" cx="412.5" cy="305.83" r="179.79"/>
		<path class="st3" d="M1426.64,1688.31c0-92.15,74.71-166.84,166.85-166.84c92.15,0,166.84,74.69,166.84,166.84H1426.64z"/>
		<path class="st3" d="M3540.44,1124.44c0,92.15-74.71,166.84-166.85,166.84c-92.15,0-166.84-74.69-166.84-166.84L3540.44,1124.44z"
			/>
		<path class="st10" d="M3591.41,1914.1c0-35.8,29.03-64.83,64.83-64.83c35.8,0,64.83,29.03,64.83,64.83
			c0,35.8-29.02,64.83-64.83,64.83"/>
		<path class="st5" d="M1196.57,152.19c0-24.56,19.91-44.48,44.48-44.48c24.56,0,44.48,19.91,44.48,44.48
			c0,24.56-19.91,44.48-44.48,44.48"/>
		
			<rect x="985.02" y="1558.38" transform="matrix(-1 -1.224647e-16 1.224647e-16 -1 2210.0574 3356.7813)" class="st3" width="240.03" height="240.03"/>
		<polygon class="st3" points="598.89,727.61 436.2,633.68 436.2,821.54 		"/>
		<polygon class="st3" points="737.48,984.43 566.56,1280.46 908.39,1280.46 		"/>
		<polygon class="st3" points="3421.46,1604.89 3133.31,1438.52 3133.31,1771.25 		"/>
		<polygon class="st3" points="2804.75,935.6 2620.73,1254.34 2988.78,1254.34 		"/>
		<g class="st0">
			<polygon class="st6" points="1008.3,71.29 737.48,540.37 1279.12,540.37 			"/>
			<polygon class="st6" points="1008.3,112.79 773.42,519.62 1243.18,519.62 			"/>
			<polygon class="st6" points="1008.3,154.29 809.35,498.87 1207.24,498.87 			"/>
			<polygon class="st6" points="1008.3,195.79 845.29,478.12 1171.31,478.12 			"/>
			<polygon class="st6" points="1008.3,237.29 881.23,457.37 1135.37,457.37 			"/>
			<polygon class="st6" points="1008.3,278.79 917.17,436.62 1099.43,436.62 			"/>
			<polygon class="st6" points="1008.3,320.28 953.11,415.87 1063.49,415.87 			"/>
		</g>
		<line class="st9" x1="497.19" y1="1968.48" x2="497.19" y2="1859.92"/>
		<line class="st9" x1="442.9" y1="1914.2" x2="551.47" y2="1914.2"/>
		
			<rect x="2119.71" y="1389.88" transform="matrix(-1 -1.224647e-16 1.224647e-16 -1 4357.9619 2898.304)" class="st3" width="118.55" height="118.55"/>
		
			<rect x="1241.25" y="1616.43" transform="matrix(-1 -1.224647e-16 1.224647e-16 -1 2601.0583 3351.4004)" class="st5" width="118.55" height="118.55"/>
		
			<rect x="3314.74" y="152.74" transform="matrix(-1 -1.224647e-16 1.224647e-16 -1 6769.335 445.3249)" class="st3" width="139.85" height="139.85"/>
		<polyline class="st5" points="201.79,785.75 246.84,740.31 202,695.47 		"/>
		<polyline class="st5" points="234.12,785.75 279.16,740.31 234.32,695.47 		"/>
		<polyline class="st5" points="266.45,785.75 311.49,740.31 266.65,695.47 		"/>
		<g class="st0">
			<defs>
				<polygon id="SVGID_4_" points="3534.91,1604.89 3246.76,1438.52 3246.76,1771.25 				"/>
			</defs>
			<clipPath id="SVGID_10_" class="st1">
				<use xlink:href="#SVGID_4_"  style="overflow:visible;"/>
			</clipPath>
			<g class="st20">
				<line class="st5" x1="3505.94" y1="1816.2" x2="3505.94" y2="1391.76"/>
				<line class="st5" x1="3469.79" y1="1816.2" x2="3469.79" y2="1391.76"/>
				<line class="st5" x1="3433.64" y1="1816.2" x2="3433.64" y2="1391.76"/>
				<line class="st5" x1="3397.49" y1="1816.2" x2="3397.49" y2="1391.76"/>
				<line class="st5" x1="3361.34" y1="1816.2" x2="3361.34" y2="1391.76"/>
				<line class="st5" x1="3325.2" y1="1816.2" x2="3325.2" y2="1391.76"/>
				<line class="st5" x1="3289.05" y1="1816.2" x2="3289.05" y2="1391.76"/>
				<line class="st5" x1="3252.9" y1="1816.2" x2="3252.9" y2="1391.76"/>
			</g>
		</g>
		<circle class="st3" cx="339.29" cy="1668.99" r="176.24"/>
		<g>
			<defs>
				<circle id="SVGID_3_" cx="-46.29" cy="1804.99" r="176.24"/>
			</defs>
			<clipPath id="SVGID_12_">
				<use xlink:href="#SVGID_3_"  style="overflow:visible;"/>
			</clipPath>
			<g class="st21">
				<line class="st5" x1="-77.93" y1="2078.19" x2="226.92" y2="1773.35"/>
				<line class="st5" x1="-96.51" y1="2059.61" x2="208.33" y2="1754.77"/>
				<line class="st5" x1="-115.09" y1="2041.03" x2="189.75" y2="1736.19"/>
				<line class="st5" x1="-133.67" y1="2022.45" x2="171.17" y2="1717.6"/>
				<line class="st5" x1="-152.26" y1="2003.86" x2="152.59" y2="1699.02"/>
				<line class="st5" x1="-170.84" y1="1985.28" x2="134" y2="1680.44"/>
				<line class="st5" x1="-189.42" y1="1966.7" x2="115.42" y2="1661.86"/>
				<line class="st5" x1="-208" y1="1948.12" x2="96.84" y2="1643.27"/>
				<line class="st5" x1="-226.59" y1="1929.53" x2="78.26" y2="1624.69"/>
				<line class="st5" x1="-245.17" y1="1910.95" x2="59.67" y2="1606.11"/>
				<line class="st5" x1="-263.75" y1="1892.37" x2="41.09" y2="1587.53"/>
				<line class="st5" x1="-282.33" y1="1873.79" x2="22.51" y2="1568.94"/>
				<line class="st5" x1="-300.92" y1="1855.2" x2="3.93" y2="1550.36"/>
				<line class="st5" x1="-319.5" y1="1836.62" x2="-14.66" y2="1531.78"/>
			</g>
		</g>
		<polyline class="st5" points="3177.12,190.95 3210.26,236.93 3243.39,190.95 3276.53,236.93 3309.67,190.95 3342.81,236.93 
			3375.95,190.95 3409.09,236.93 3442.23,190.95 3475.37,236.93 3508.5,190.95 		"/>
		<polyline class="st5" points="3177.12,144.97 3210.26,190.95 3243.39,144.97 3276.53,190.95 3309.67,144.97 3342.81,190.95 
			3375.95,144.97 3409.09,190.95 3442.23,144.97 3475.37,190.95 3508.5,144.97 		"/>
		<polyline class="st5" points="3177.12,98.99 3210.26,144.97 3243.39,98.99 3276.53,144.97 3309.67,98.99 3342.81,144.97 
			3375.95,98.99 3409.09,144.97 3442.23,98.99 3475.37,144.97 3508.5,98.99 		"/>
		<circle class="st3" cx="1974.08" cy="1321.26" r="27.35"/>
		<circle class="st5" cx="2669.88" cy="-17.91" r="46.02"/>
		<line class="st5" x1="1922.77" y1="614.77" x2="1849.59" y2="541.59"/>
		<line class="st5" x1="1812.59" y1="577.77" x2="1885.77" y2="504.59"/>
		<circle class="st3" cx="3534.91" cy="376.25" r="38.7"/>
		<ellipse transform="matrix(0.1602 -0.9871 0.9871 0.1602 50.7826 3255.5962)" cx="1938.64" cy="1597.95" rx="15.53" ry="15.53"/>
		<ellipse transform="matrix(0.2298 -0.9732 0.9732 0.2298 -111.9894 3157.177)" cx="1938.64" cy="1649.34" rx="15.53" ry="15.53"/>
		<ellipse transform="matrix(0.1602 -0.9871 0.9871 0.1602 -50.6639 3341.907)" cx="1938.64" cy="1700.73" rx="15.53" ry="15.53"/>
		
			<rect x="356.33" y="1387.01" transform="matrix(-1 -1.224647e-16 1.224647e-16 -1 742.9058 2804.2769)" width="30.25" height="30.25"/>
		
			<rect x="280.22" y="1387.01" transform="matrix(-1 -1.224647e-16 1.224647e-16 -1 590.6935 2804.2769)" width="30.25" height="30.25"/>
		
			<rect x="204.12" y="1387.01" transform="matrix(-1 -1.224647e-16 1.224647e-16 -1 438.4812 2804.2769)" width="30.25" height="30.25"/>
		
			<rect x="128.01" y="1387.01" transform="matrix(-1 -1.224647e-16 1.224647e-16 -1 286.2689 2804.2769)" width="30.25" height="30.25"/>
		<g class="st0">
			<g class="st1">
				<ellipse transform="matrix(0.9239 -0.3827 0.3827 0.9239 -105.1479 1135.1367)" cx="2800.78" cy="831.88" rx="16.5" ry="16.5"/>
				<circle cx="2752.32" cy="831.88" r="15.36"/>
				<path d="M2718.08,831.88c0,7.86-6.37,14.22-14.22,14.22s-14.22-6.37-14.22-14.22s6.37-14.22,14.22-14.22
					S2718.08,824.02,2718.08,831.88z"/>
				<circle cx="2655.4" cy="831.88" r="13.09"/>
				
					<ellipse transform="matrix(0.2298 -0.9732 0.9732 0.2298 1198.3673 3177.9509)" cx="2606.94" cy="831.88" rx="11.95" ry="11.95"/>
				
					<ellipse transform="matrix(0.7071 -0.7071 0.7071 0.7071 161.1361 2052.7673)" cx="2558.48" cy="831.88" rx="10.82" ry="10.82"/>
				<ellipse transform="matrix(0.3827 -0.9239 0.9239 0.3827 780.9256 2832.4861)" cx="2510.02" cy="831.88" rx="9.68" ry="9.68"/>
				<path d="M2470.1,831.88c0,4.72-3.82,8.54-8.54,8.54s-8.54-3.82-8.54-8.54c0-4.72,3.82-8.54,8.54-8.54
					S2470.1,827.16,2470.1,831.88z"/>
				<path d="M2420.5,831.88c0,4.09-3.32,7.41-7.41,7.41s-7.41-3.32-7.41-7.41c0-4.09,3.32-7.41,7.41-7.41
					S2420.5,827.78,2420.5,831.88z"/>
				<path d="M2370.91,831.88c0,3.46-2.81,6.27-6.27,6.27c-3.46,0-6.27-2.81-6.27-6.27c0-3.46,2.81-6.27,6.27-6.27
					C2368.1,825.6,2370.91,828.41,2370.91,831.88z"/>
			</g>
			<g class="st1">
				<ellipse transform="matrix(0.9239 -0.3827 0.3827 0.9239 -126.2446 1139.3331)" cx="2800.78" cy="887" rx="16.5" ry="16.5"/>
				<path d="M2767.68,887c0,8.48-6.88,15.36-15.36,15.36c-8.48,0-15.36-6.88-15.36-15.36s6.88-15.36,15.36-15.36
					C2760.8,871.64,2767.68,878.52,2767.68,887z"/>
				<circle cx="2703.86" cy="887" r="14.22"/>
				<path d="M2668.49,887c0,7.23-5.86,13.09-13.09,13.09s-13.09-5.86-13.09-13.09c0-7.23,5.86-13.09,13.09-13.09
					S2668.49,879.78,2668.49,887z"/>
				<path d="M2618.89,887c0,6.6-5.35,11.95-11.95,11.95s-11.95-5.35-11.95-11.95c0-6.6,5.35-11.95,11.95-11.95
					S2618.89,880.4,2618.89,887z"/>
				<ellipse transform="matrix(0.1602 -0.9871 0.9871 0.1602 1273.106 3270.3628)" cx="2558.48" cy="887" rx="10.82" ry="10.82"/>
				<circle cx="2510.02" cy="887" r="9.68"/>
				<path d="M2470.1,887c0,4.72-3.82,8.54-8.54,8.54s-8.54-3.82-8.54-8.54c0-4.72,3.82-8.54,8.54-8.54S2470.1,882.29,2470.1,887z"/>
				<path d="M2420.5,887c0,4.09-3.32,7.41-7.41,7.41s-7.41-3.32-7.41-7.41c0-4.09,3.32-7.41,7.41-7.41S2420.5,882.91,2420.5,887z"/>
				<path d="M2370.91,887c0,3.46-2.81,6.27-6.27,6.27c-3.46,0-6.27-2.81-6.27-6.27c0-3.46,2.81-6.27,6.27-6.27
					C2368.1,880.73,2370.91,883.54,2370.91,887z"/>
			</g>
			<g class="st1">
				<ellipse transform="matrix(0.8732 -0.4874 0.4874 0.8732 -104.0192 1484.4612)" cx="2800.78" cy="942.13" rx="16.5" ry="16.5"/>
				<circle cx="2752.32" cy="942.13" r="15.36"/>
				<circle cx="2703.86" cy="942.13" r="14.22"/>
				<circle cx="2655.4" cy="942.13" r="13.09"/>
				<ellipse transform="matrix(0.7071 -0.7071 0.7071 0.7071 97.3669 2119.3276)" cx="2606.94" cy="942.13" rx="11.95" ry="11.95"/>
				<circle cx="2558.48" cy="942.13" r="10.82"/>
				<circle cx="2510.02" cy="942.13" r="9.68"/>
				<path d="M2470.1,942.13c0,4.72-3.82,8.54-8.54,8.54s-8.54-3.82-8.54-8.54c0-4.72,3.82-8.54,8.54-8.54
					S2470.1,937.41,2470.1,942.13z"/>
				<path d="M2420.5,942.13c0,4.09-3.32,7.41-7.41,7.41s-7.41-3.32-7.41-7.41c0-4.09,3.32-7.41,7.41-7.41
					S2420.5,938.04,2420.5,942.13z"/>
				<path d="M2370.91,942.13c0,3.46-2.81,6.27-6.27,6.27c-3.46,0-6.27-2.81-6.27-6.27c0-3.46,2.81-6.27,6.27-6.27
					C2368.1,935.86,2370.91,938.67,2370.91,942.13z"/>
			</g>
			<g class="st1">
				<ellipse transform="matrix(0.2298 -0.9732 0.9732 0.2298 1186.7135 3493.9951)" cx="2800.78" cy="997.26" rx="16.5" ry="16.5"/>
				<path d="M2767.68,997.26c0,8.48-6.88,15.36-15.36,15.36s-15.36-6.88-15.36-15.36c0-8.48,6.88-15.36,15.36-15.36
					C2760.8,981.9,2767.68,988.78,2767.68,997.26z"/>
				<circle cx="2703.86" cy="997.26" r="14.22"/>
				<path d="M2668.49,997.26c0,7.23-5.86,13.09-13.09,13.09c-7.23,0-13.09-5.86-13.09-13.09s5.86-13.09,13.09-13.09
					S2668.49,990.03,2668.49,997.26z"/>
				<circle cx="2606.94" cy="997.26" r="11.95"/>
				<circle cx="2558.48" cy="997.26" r="10.82"/>
				<circle cx="2510.02" cy="997.26" r="9.68"/>
				<path d="M2470.1,997.26c0,4.72-3.82,8.54-8.54,8.54c-4.72,0-8.54-3.82-8.54-8.54c0-4.72,3.82-8.54,8.54-8.54
					S2470.1,992.54,2470.1,997.26z"/>
				<path d="M2420.5,997.26c0,4.09-3.32,7.41-7.41,7.41s-7.41-3.32-7.41-7.41c0-4.09,3.32-7.41,7.41-7.41
					S2420.5,993.17,2420.5,997.26z"/>
				<path d="M2370.91,997.26c0,3.46-2.81,6.27-6.27,6.27s-6.27-2.81-6.27-6.27c0-3.46,2.81-6.27,6.27-6.27
					S2370.91,993.8,2370.91,997.26z"/>
			</g>
			<g class="st1">
				<ellipse transform="matrix(0.7071 -0.7071 0.7071 0.7071 76.1793 2288.6887)" cx="2800.78" cy="1052.39" rx="16.5" ry="16.5"/>
				
					<ellipse transform="matrix(0.3827 -0.9239 0.9239 0.3827 726.7756 3192.4712)" cx="2752.32" cy="1052.39" rx="15.36" ry="15.36"/>
				
					<ellipse transform="matrix(0.1602 -0.9871 0.9871 0.1602 1231.9497 3552.7595)" cx="2703.86" cy="1052.39" rx="14.22" ry="14.22"/>
				
					<ellipse transform="matrix(0.2298 -0.9732 0.9732 0.2298 1021.0757 3394.9614)" cx="2655.4" cy="1052.39" rx="13.09" ry="13.09"/>
				
					<ellipse transform="matrix(0.9239 -0.3827 0.3827 0.9239 -204.29 1077.7422)" cx="2606.94" cy="1052.39" rx="11.95" ry="11.95"/>
				<circle cx="2558.48" cy="1052.39" r="10.82"/>
				<circle cx="2510.02" cy="1052.39" r="9.68"/>
				<circle cx="2461.56" cy="1052.39" r="8.54"/>
				<path d="M2420.5,1052.39c0,4.09-3.32,7.41-7.41,7.41s-7.41-3.32-7.41-7.41s3.32-7.41,7.41-7.41S2420.5,1048.3,2420.5,1052.39z"
					/>
				<path d="M2370.91,1052.39c0,3.46-2.81,6.27-6.27,6.27s-6.27-2.81-6.27-6.27c0-3.46,2.81-6.27,6.27-6.27
					S2370.91,1048.92,2370.91,1052.39z"/>
			</g>
			<g class="st1">
				<ellipse transform="matrix(0.7071 -0.7071 0.7071 0.7071 37.1978 2304.8354)" cx="2800.78" cy="1107.52" rx="16.5" ry="16.5"/>
				<circle cx="2752.32" cy="1107.52" r="15.36"/>
				
					<ellipse transform="matrix(0.5257 -0.8507 0.8507 0.5257 340.2494 2825.304)" cx="2703.86" cy="1107.52" rx="14.22" ry="14.22"/>
				
					<ellipse transform="matrix(0.2298 -0.9732 0.9732 0.2298 967.4222 3437.4238)" cx="2655.4" cy="1107.52" rx="13.09" ry="13.09"/>
				
					<ellipse transform="matrix(0.7071 -0.7071 0.7071 0.7071 -19.5776 2167.7676)" cx="2606.94" cy="1107.52" rx="11.95" ry="11.95"/>
				<circle cx="2558.48" cy="1107.52" r="10.82"/>
				<circle cx="2510.02" cy="1107.52" r="9.68"/>
				<circle cx="2461.56" cy="1107.52" r="8.54"/>
				<path d="M2420.5,1107.52c0,4.09-3.32,7.41-7.41,7.41s-7.41-3.32-7.41-7.41s3.32-7.41,7.41-7.41S2420.5,1103.43,2420.5,1107.52z"
					/>
				<path d="M2370.91,1107.52c0,3.46-2.81,6.27-6.27,6.27s-6.27-2.81-6.27-6.27c0-3.46,2.81-6.27,6.27-6.27
					S2370.91,1104.05,2370.91,1107.52z"/>
			</g>
			<g class="st1">
				<circle cx="2800.78" cy="1162.64" r="16.5"/>
				<circle cx="2752.32" cy="1162.64" r="15.36"/>
				
					<ellipse transform="matrix(0.7071 -0.7071 0.7071 0.7071 -30.1714 2252.4482)" cx="2703.86" cy="1162.64" rx="14.22" ry="14.22"/>
				
					<ellipse transform="matrix(0.1602 -0.9871 0.9871 0.1602 1082.4188 3597.5198)" cx="2655.4" cy="1162.64" rx="13.09" ry="13.09"/>
				
					<ellipse transform="matrix(0.7071 -0.7071 0.7071 0.7071 -58.5591 2183.9143)" cx="2606.94" cy="1162.64" rx="11.95" ry="11.95"/>
				<circle cx="2558.48" cy="1162.64" r="10.82"/>
				<circle cx="2510.02" cy="1162.64" r="9.68"/>
				<circle cx="2461.56" cy="1162.64" r="8.54"/>
				<path d="M2420.5,1162.64c0,4.09-3.32,7.41-7.41,7.41s-7.41-3.32-7.41-7.41s3.32-7.41,7.41-7.41S2420.5,1158.55,2420.5,1162.64z"
					/>
				<path d="M2370.91,1162.64c0,3.46-2.81,6.27-6.27,6.27s-6.27-2.81-6.27-6.27c0-3.46,2.81-6.27,6.27-6.27
					S2370.91,1159.18,2370.91,1162.64z"/>
			</g>
		</g>
		<path class="st3" d="M3537.89,1865.56c0-4.58,3.71-8.29,8.29-8.29c4.58,0,8.29,3.71,8.29,8.29c0,4.58-3.71,8.29-8.29,8.29
			C3541.61,1873.85,3537.89,1870.14,3537.89,1865.56z"/>
		<path class="st3" d="M3500.33,1865.56c0-4.58,3.71-8.29,8.29-8.29c4.58,0,8.29,3.71,8.29,8.29c0,4.58-3.71,8.29-8.29,8.29
			C3504.04,1873.85,3500.33,1870.14,3500.33,1865.56z"/>
		<path class="st3" d="M3462.76,1865.56c0-4.58,3.71-8.29,8.29-8.29c4.58,0,8.29,3.71,8.29,8.29c0,4.58-3.71,8.29-8.29,8.29
			C3466.48,1873.85,3462.76,1870.14,3462.76,1865.56z"/>
		<path class="st14" d="M643.85,403.65c0-3.37,2.73-6.1,6.1-6.1s6.1,2.73,6.1,6.1c0,3.37-2.73,6.1-6.1,6.1
			S643.85,407.02,643.85,403.65z"/>
		<circle class="st14" cx="649.95" cy="368.36" r="6.1"/>
		<circle class="st14" cx="649.95" cy="333.07" r="6.1"/>
		<g class="st0">
			
				<ellipse transform="matrix(0.7071 -0.7071 0.7071 0.7071 459.5399 2589.6626)" class="st15" cx="3355.77" cy="740.12" rx="232.76" ry="232.76"/>
			<circle class="st15" cx="3355.77" cy="740.12" r="184.25"/>
			
				<ellipse transform="matrix(0.7071 -0.7071 0.7071 0.7071 459.5399 2589.6626)" class="st15" cx="3355.77" cy="740.12" rx="135.74" ry="135.74"/>
			
				<ellipse transform="matrix(0.7071 -0.7071 0.7071 0.7071 459.5399 2589.6626)" class="st15" cx="3355.77" cy="740.12" rx="87.24" ry="87.24"/>
			<circle class="st15" cx="3355.77" cy="740.12" r="38.73"/>
		</g>
		<circle class="st5" cx="3816.14" cy="570.67" r="243.89"/>
		<polygon class="st17" points="1857.05,202.91 1886.6,173.36 1916.15,202.91 1963.43,155.63 1933.88,126.08 1963.43,96.53 
			1916.15,49.25 1886.6,78.8 1857.05,49.25 1809.77,96.53 1839.32,126.08 1809.77,155.63 		"/>
	</g>
</g>
</svg>
