<svg xmlns="http://www.w3.org/2000/svg" xmlns:xlink="http://www.w3.org/1999/xlink" viewBox="0 0 627.36 361.6"><defs><style>.cls-1{mask:url(#mask);}.cls-10,.cls-12,.cls-14,.cls-16,.cls-18,.cls-2,.cls-20,.cls-22,.cls-24,.cls-26,.cls-28,.cls-30,.cls-32,.cls-4,.cls-6,.cls-8{mix-blend-mode:multiply;}.cls-2{fill:url(#linear-gradient);}.cls-3{mask:url(#mask-2);}.cls-4{fill:url(#linear-gradient-2);}.cls-5{mask:url(#mask-3);}.cls-6{fill:url(#linear-gradient-3);}.cls-7{mask:url(#mask-4);}.cls-8{fill:url(#linear-gradient-4);}.cls-9{mask:url(#mask-5);}.cls-10{fill:url(#linear-gradient-5);}.cls-11{mask:url(#mask-6);}.cls-12{fill:url(#linear-gradient-6);}.cls-13{mask:url(#mask-7);}.cls-14{fill:url(#linear-gradient-7);}.cls-15{mask:url(#mask-8);}.cls-16{fill:url(#linear-gradient-8);}.cls-17{mask:url(#mask-9);}.cls-18{fill:url(#linear-gradient-9);}.cls-19{mask:url(#mask-10);}.cls-20{fill:url(#linear-gradient-10);}.cls-21{mask:url(#mask-11);}.cls-22{fill:url(#linear-gradient-11);}.cls-23{mask:url(#mask-12);}.cls-24{fill:url(#linear-gradient-12);}.cls-25{mask:url(#mask-13);}.cls-26{fill:url(#linear-gradient-13);}.cls-27{mask:url(#mask-14);}.cls-28{fill:url(#linear-gradient-14);}.cls-29{mask:url(#mask-15);}.cls-30{fill:url(#linear-gradient-15);}.cls-31{mask:url(#mask-16);}.cls-32{fill:url(#linear-gradient-16);}.cls-33{isolation:isolate;}.cls-34,.cls-36,.cls-39{fill:#4831d4;}.cls-35{mask:url(#mask-17);}.cls-36{mix-blend-mode:overlay;}.cls-37{mask:url(#mask-18);}.cls-38{mask:url(#mask-19);}.cls-39{opacity:0.6;mix-blend-mode:hard-light;}.cls-40{mask:url(#mask-20);}.cls-41{mask:url(#mask-21);}.cls-42{mask:url(#mask-22);}.cls-43{mask:url(#mask-23);}.cls-44{mask:url(#mask-24);}.cls-45{mask:url(#mask-25);}.cls-46{mask:url(#mask-26);}.cls-47{mask:url(#mask-27);}.cls-48{mask:url(#mask-28);}.cls-49{mask:url(#mask-29);}.cls-50{mask:url(#mask-30);}.cls-51{mask:url(#mask-31);}.cls-52{mask:url(#mask-32);}.cls-53{filter:url(#luminosity-noclip-32);}.cls-54{filter:url(#luminosity-noclip-31);}.cls-55{filter:url(#luminosity-noclip-30);}.cls-56{filter:url(#luminosity-noclip-29);}.cls-57{filter:url(#luminosity-noclip-28);}.cls-58{filter:url(#luminosity-noclip-27);}.cls-59{filter:url(#luminosity-noclip-26);}.cls-60{filter:url(#luminosity-noclip-25);}.cls-61{filter:url(#luminosity-noclip-24);}.cls-62{filter:url(#luminosity-noclip-23);}.cls-63{filter:url(#luminosity-noclip-22);}.cls-64{filter:url(#luminosity-noclip-21);}.cls-65{filter:url(#luminosity-noclip-20);}.cls-66{filter:url(#luminosity-noclip-19);}.cls-67{filter:url(#luminosity-noclip-18);}.cls-68{filter:url(#luminosity-noclip-17);}.cls-69{filter:url(#luminosity-noclip-16);}.cls-70{filter:url(#luminosity-noclip-15);}.cls-71{filter:url(#luminosity-noclip-14);}.cls-72{filter:url(#luminosity-noclip-13);}.cls-73{filter:url(#luminosity-noclip-12);}.cls-74{filter:url(#luminosity-noclip-11);}.cls-75{filter:url(#luminosity-noclip-10);}.cls-76{filter:url(#luminosity-noclip-9);}.cls-77{filter:url(#luminosity-noclip-8);}.cls-78{filter:url(#luminosity-noclip-7);}.cls-79{filter:url(#luminosity-noclip-6);}.cls-80{filter:url(#luminosity-noclip-5);}.cls-81{filter:url(#luminosity-noclip-4);}.cls-82{filter:url(#luminosity-noclip-3);}.cls-83{filter:url(#luminosity-noclip-2);}.cls-84{filter:url(#luminosity-noclip);}</style><filter id="luminosity-noclip" x="631.52" y="-8792" width="97.18" height="32766" filterUnits="userSpaceOnUse" color-interpolation-filters="sRGB"><feFlood flood-color="#fff" result="bg"/><feBlend in="SourceGraphic" in2="bg"/></filter><mask id="mask" x="631.52" y="-8792" width="97.18" height="32766" maskUnits="userSpaceOnUse"><g class="cls-84"/></mask><linearGradient id="linear-gradient" x1="-1536.91" y1="512.68" x2="-1275.6" y2="511.89" gradientTransform="matrix(-1, 0, 0, 1, -682.89, 0)" gradientUnits="userSpaceOnUse"><stop offset="0" stop-color="#fff"/><stop offset="0.08" stop-color="#f6f6f6"/><stop offset="0.23" stop-color="#ddd"/><stop offset="0.4" stop-color="#b4b4b4"/><stop offset="0.61" stop-color="#7b7b7b"/><stop offset="0.85" stop-color="#333"/><stop offset="1"/></linearGradient><filter id="luminosity-noclip-2" x="754.8" y="-8792" width="158.88" height="32766" filterUnits="userSpaceOnUse" color-interpolation-filters="sRGB"><feFlood flood-color="#fff" result="bg"/><feBlend in="SourceGraphic" in2="bg"/></filter><mask id="mask-2" x="754.8" y="-8792" width="158.88" height="32766" maskUnits="userSpaceOnUse"><g class="cls-83"/></mask><linearGradient id="linear-gradient-2" x1="-1529.11" y1="327.25" x2="-1511.12" y2="502.42" xlink:href="#linear-gradient"/><filter id="luminosity-noclip-3" x="796.97" y="-8792" width="116.71" height="32766" filterUnits="userSpaceOnUse" color-interpolation-filters="sRGB"><feFlood flood-color="#fff" result="bg"/><feBlend in="SourceGraphic" in2="bg"/></filter><mask id="mask-3" x="796.97" y="-8792" width="116.71" height="32766" maskUnits="userSpaceOnUse"><g class="cls-82"/></mask><linearGradient id="linear-gradient-3" x1="-1765.52" y1="459.87" x2="-1451.17" y2="458.92" xlink:href="#linear-gradient"/><filter id="luminosity-noclip-4" x="471.31" y="-8792" width="97.18" height="32766" filterUnits="userSpaceOnUse" color-interpolation-filters="sRGB"><feFlood flood-color="#fff" result="bg"/><feBlend in="SourceGraphic" in2="bg"/></filter><mask id="mask-4" x="471.31" y="-8792" width="97.18" height="32766" maskUnits="userSpaceOnUse"><g class="cls-81"/></mask><linearGradient id="linear-gradient-4" x1="-1724.23" y1="512.71" x2="-1462.92" y2="511.93" gradientTransform="translate(2070.24)" xlink:href="#linear-gradient"/><filter id="luminosity-noclip-5" x="422.06" y="-8792" width="183.73" height="32766" filterUnits="userSpaceOnUse" color-interpolation-filters="sRGB"><feFlood flood-color="#fff" result="bg"/><feBlend in="SourceGraphic" in2="bg"/></filter><mask id="mask-5" x="422.06" y="-8792" width="183.73" height="32766" maskUnits="userSpaceOnUse"><g class="cls-80"/></mask><linearGradient id="linear-gradient-5" x1="-1551.84" y1="641.79" x2="-1559.62" y2="456.12" gradientTransform="translate(2070.24)" xlink:href="#linear-gradient"/><filter id="luminosity-noclip-6" x="471.31" y="-8792" width="74.77" height="32766" filterUnits="userSpaceOnUse" color-interpolation-filters="sRGB"><feFlood flood-color="#fff" result="bg"/><feBlend in="SourceGraphic" in2="bg"/></filter><mask id="mask-6" x="471.31" y="-8792" width="74.77" height="32766" maskUnits="userSpaceOnUse"><g class="cls-79"/></mask><linearGradient id="linear-gradient-6" x1="-1581.01" y1="563.21" x2="-1531.28" y2="508.07" gradientTransform="translate(2070.24)" xlink:href="#linear-gradient"/><filter id="luminosity-noclip-7" x="594.21" y="-8792" width="183.73" height="32766" filterUnits="userSpaceOnUse" color-interpolation-filters="sRGB"><feFlood flood-color="#fff" result="bg"/><feBlend in="SourceGraphic" in2="bg"/></filter><mask id="mask-7" x="594.21" y="-8792" width="183.73" height="32766" maskUnits="userSpaceOnUse"><g class="cls-78"/></mask><linearGradient id="linear-gradient-7" x1="-1364.49" y1="641.79" x2="-1372.27" y2="456.12" xlink:href="#linear-gradient"/><filter id="luminosity-noclip-8" x="373.78" y="-8792" width="160.38" height="32766" filterUnits="userSpaceOnUse" color-interpolation-filters="sRGB"><feFlood flood-color="#fff" result="bg"/><feBlend in="SourceGraphic" in2="bg"/></filter><mask id="mask-8" x="373.78" y="-8792" width="160.38" height="32766" maskUnits="userSpaceOnUse"><g class="cls-77"/></mask><linearGradient id="linear-gradient-8" x1="-1614.38" y1="715.61" x2="-1617.23" y2="498.78" gradientTransform="translate(2070.24)" gradientUnits="userSpaceOnUse"><stop offset="0" stop-color="#fff"/><stop offset="1"/></linearGradient><filter id="luminosity-noclip-9" x="441.25" y="-8792" width="92.91" height="32766" filterUnits="userSpaceOnUse" color-interpolation-filters="sRGB"><feFlood flood-color="#fff" result="bg"/><feBlend in="SourceGraphic" in2="bg"/></filter><mask id="mask-9" x="441.25" y="-8792" width="92.91" height="32766" maskUnits="userSpaceOnUse"><g class="cls-76"/></mask><linearGradient id="linear-gradient-9" x1="-1354.46" y1="638.37" x2="-1679.22" y2="573.98" xlink:href="#linear-gradient-8"/><filter id="luminosity-noclip-10" x="286.32" y="-8792" width="158.88" height="32766" filterUnits="userSpaceOnUse" color-interpolation-filters="sRGB"><feFlood flood-color="#fff" result="bg"/><feBlend in="SourceGraphic" in2="bg"/></filter><mask id="mask-10" x="286.32" y="-8792" width="158.88" height="32766" maskUnits="userSpaceOnUse"><g class="cls-75"/></mask><linearGradient id="linear-gradient-10" x1="-1716.46" y1="327.25" x2="-1698.47" y2="502.42" gradientTransform="translate(2070.24)" xlink:href="#linear-gradient"/><filter id="luminosity-noclip-11" x="286.32" y="-8792" width="116.71" height="32766" filterUnits="userSpaceOnUse" color-interpolation-filters="sRGB"><feFlood flood-color="#fff" result="bg"/><feBlend in="SourceGraphic" in2="bg"/></filter><mask id="mask-11" x="286.32" y="-8792" width="116.71" height="32766" maskUnits="userSpaceOnUse"><g class="cls-74"/></mask><linearGradient id="linear-gradient-11" x1="-1952.85" y1="459.9" x2="-1638.49" y2="458.96" gradientTransform="translate(2070.24)" xlink:href="#linear-gradient"/><filter id="luminosity-noclip-12" x="473.67" y="-8792" width="171.23" height="32766" filterUnits="userSpaceOnUse" color-interpolation-filters="sRGB"><feFlood flood-color="#fff" result="bg"/><feBlend in="SourceGraphic" in2="bg"/></filter><mask id="mask-12" x="473.67" y="-8792" width="171.23" height="32766" maskUnits="userSpaceOnUse"><g class="cls-73"/></mask><linearGradient id="linear-gradient-12" x1="540.98" y1="219.41" x2="565.6" y2="424.87" gradientTransform="matrix(1, 0, 0, 1, 0, 0)" xlink:href="#linear-gradient-8"/><filter id="luminosity-noclip-13" x="594.22" y="-8792" width="132.11" height="32766" filterUnits="userSpaceOnUse" color-interpolation-filters="sRGB"><feFlood flood-color="#fff" result="bg"/><feBlend in="SourceGraphic" in2="bg"/></filter><mask id="mask-13" x="594.22" y="-8792" width="132.11" height="32766" maskUnits="userSpaceOnUse"><g class="cls-72"/></mask><linearGradient id="linear-gradient-13" x1="715.08" y1="202.52" x2="634.6" y2="415.56" gradientTransform="matrix(1, 0, 0, 1, 0, 0)" xlink:href="#linear-gradient-8"/><filter id="luminosity-noclip-14" x="653.92" y="-8792" width="74.77" height="32766" filterUnits="userSpaceOnUse" color-interpolation-filters="sRGB"><feFlood flood-color="#fff" result="bg"/><feBlend in="SourceGraphic" in2="bg"/></filter><mask id="mask-14" x="653.92" y="-8792" width="74.77" height="32766" maskUnits="userSpaceOnUse"><g class="cls-71"/></mask><linearGradient id="linear-gradient-14" x1="-1393.66" y1="563.21" x2="-1343.93" y2="508.07" xlink:href="#linear-gradient"/><filter id="luminosity-noclip-15" x="665.84" y="-8792" width="160.38" height="32766" filterUnits="userSpaceOnUse" color-interpolation-filters="sRGB"><feFlood flood-color="#fff" result="bg"/><feBlend in="SourceGraphic" in2="bg"/></filter><mask id="mask-15" x="665.84" y="-8792" width="160.38" height="32766" maskUnits="userSpaceOnUse"><g class="cls-70"/></mask><linearGradient id="linear-gradient-15" x1="-1427.04" y1="715.61" x2="-1429.88" y2="498.78" gradientTransform="matrix(-1, 0, 0, 1, -682.89, 0)" xlink:href="#linear-gradient-8"/><filter id="luminosity-noclip-16" x="665.84" y="-8792" width="92.91" height="32766" filterUnits="userSpaceOnUse" color-interpolation-filters="sRGB"><feFlood flood-color="#fff" result="bg"/><feBlend in="SourceGraphic" in2="bg"/></filter><mask id="mask-16" x="665.84" y="-8792" width="92.91" height="32766" maskUnits="userSpaceOnUse"><g class="cls-69"/></mask><linearGradient id="linear-gradient-16" x1="-1167.11" y1="638.37" x2="-1491.87" y2="573.98" gradientTransform="matrix(-1, 0, 0, 1, -682.89, 0)" xlink:href="#linear-gradient-8"/><filter id="luminosity-noclip-17" x="631.52" y="429.56" width="97.18" height="165.18" filterUnits="userSpaceOnUse" color-interpolation-filters="sRGB"><feFlood flood-color="#fff" result="bg"/><feBlend in="SourceGraphic" in2="bg"/></filter><mask id="mask-17" x="345.2" y="109.23" width="97.18" height="165.18" maskUnits="userSpaceOnUse"><g class="cls-68"><g transform="translate(-286.32 -320.33)"><g class="cls-1"><polygon class="cls-2" points="670.85 429.56 728.69 503.82 665.84 594.75 631.52 550.67 670.85 429.56"/></g></g></g></mask><filter id="luminosity-noclip-18" x="594.21" y="502.78" width="183.73" height="91.97" filterUnits="userSpaceOnUse" color-interpolation-filters="sRGB"><feFlood flood-color="#fff" result="bg"/><feBlend in="SourceGraphic" in2="bg"/></filter><mask id="mask-18" x="307.89" y="182.45" width="183.73" height="91.97" maskUnits="userSpaceOnUse"><g class="cls-67"><g transform="translate(-286.32 -320.33)"><g class="cls-13"><polygon class="cls-14" points="777.94 567.06 665.84 594.75 594.21 502.78 777.94 567.06"/></g></g></g></mask><filter id="luminosity-noclip-19" x="653.92" y="488.55" width="74.77" height="106.2" filterUnits="userSpaceOnUse" color-interpolation-filters="sRGB"><feFlood flood-color="#fff" result="bg"/><feBlend in="SourceGraphic" in2="bg"/></filter><mask id="mask-19" x="367.6" y="168.22" width="74.77" height="106.2" maskUnits="userSpaceOnUse"><g class="cls-66"><g transform="translate(-286.32 -320.33)"><g class="cls-27"><polygon class="cls-28" points="716.8 488.55 728.69 503.82 665.84 594.75 653.92 579.44 716.8 488.55"/></g></g></g></mask><filter id="luminosity-noclip-20" x="665.84" y="548.16" width="160.38" height="133.77" filterUnits="userSpaceOnUse" color-interpolation-filters="sRGB"><feFlood flood-color="#fff" result="bg"/><feBlend in="SourceGraphic" in2="bg"/></filter><mask id="mask-20" x="379.52" y="227.83" width="160.38" height="133.77" maskUnits="userSpaceOnUse"><g class="cls-65"><g transform="translate(-286.32 -320.33)"><g class="cls-29"><polygon class="cls-30" points="690.17 559.54 826.22 548.16 826.22 548.16 796.6 591.01 733.76 681.93 733.74 681.92 665.84 594.75 690.17 559.54"/></g></g></g></mask><filter id="luminosity-noclip-21" x="665.84" y="495.76" width="92.91" height="186.17" filterUnits="userSpaceOnUse" color-interpolation-filters="sRGB"><feFlood flood-color="#fff" result="bg"/><feBlend in="SourceGraphic" in2="bg"/></filter><mask id="mask-21" x="379.52" y="175.43" width="92.91" height="186.17" maskUnits="userSpaceOnUse"><g class="cls-64"><g transform="translate(-286.32 -320.33)"><g class="cls-31"><polygon class="cls-32" points="733.76 681.93 733.74 681.92 665.84 594.75 728.69 503.82 734.26 495.76 734.26 495.76 758.75 645.78 733.76 681.93"/></g></g></g></mask><filter id="luminosity-noclip-22" x="754.8" y="397.67" width="158.88" height="68.88" filterUnits="userSpaceOnUse" color-interpolation-filters="sRGB"><feFlood flood-color="#fff" result="bg"/><feBlend in="SourceGraphic" in2="bg"/></filter><mask id="mask-22" x="468.48" y="77.33" width="158.88" height="68.88" maskUnits="userSpaceOnUse"><g class="cls-63"><g transform="translate(-286.32 -320.33)"><g class="cls-3"><path class="cls-4" d="M774.63,437.37a92,92,0,0,1,128-23.37l11,7.63-31,44.92c-32.82-4.79-81.65-8.77-127.83-.51Z"/></g></g></g></mask><filter id="luminosity-noclip-23" x="796.97" y="397.67" width="116.71" height="123.06" filterUnits="userSpaceOnUse" color-interpolation-filters="sRGB"><feFlood flood-color="#fff" result="bg"/><feBlend in="SourceGraphic" in2="bg"/></filter><mask id="mask-23" x="510.65" y="77.34" width="116.71" height="123.06" maskUnits="userSpaceOnUse"><g class="cls-62"><g transform="translate(-286.32 -320.33)"><g class="cls-5"><path class="cls-6" d="M797,414.69A92.06,92.06,0,0,1,902.64,414l11,7.63-68.49,99.1S830.35,457.79,797,414.69Z"/></g></g></g></mask><filter id="luminosity-noclip-24" x="471.31" y="429.56" width="97.18" height="165.18" filterUnits="userSpaceOnUse" color-interpolation-filters="sRGB"><feFlood flood-color="#fff" result="bg"/><feBlend in="SourceGraphic" in2="bg"/></filter><mask id="mask-24" x="184.99" y="109.23" width="97.18" height="165.18" maskUnits="userSpaceOnUse"><g class="cls-61"><g transform="translate(-286.32 -320.33)"><g class="cls-7"><polygon class="cls-8" points="529.15 429.56 471.31 503.82 534.16 594.75 568.48 550.67 529.15 429.56"/></g></g></g></mask><filter id="luminosity-noclip-25" x="422.06" y="502.78" width="183.73" height="91.97" filterUnits="userSpaceOnUse" color-interpolation-filters="sRGB"><feFlood flood-color="#fff" result="bg"/><feBlend in="SourceGraphic" in2="bg"/></filter><mask id="mask-25" x="135.74" y="182.45" width="183.73" height="91.97" maskUnits="userSpaceOnUse"><g class="cls-60"><g transform="translate(-286.32 -320.33)"><g class="cls-9"><polygon class="cls-10" points="422.06 567.06 534.16 594.75 605.79 502.78 422.06 567.06"/></g></g></g></mask><filter id="luminosity-noclip-26" x="471.31" y="488.55" width="74.77" height="106.2" filterUnits="userSpaceOnUse" color-interpolation-filters="sRGB"><feFlood flood-color="#fff" result="bg"/><feBlend in="SourceGraphic" in2="bg"/></filter><mask id="mask-26" x="184.99" y="168.22" width="74.77" height="106.2" maskUnits="userSpaceOnUse"><g class="cls-59"><g transform="translate(-286.32 -320.33)"><g class="cls-11"><polygon class="cls-12" points="483.2 488.55 471.31 503.82 534.16 594.75 546.08 579.44 483.2 488.55"/></g></g></g></mask><filter id="luminosity-noclip-27" x="373.78" y="548.16" width="160.38" height="133.77" filterUnits="userSpaceOnUse" color-interpolation-filters="sRGB"><feFlood flood-color="#fff" result="bg"/><feBlend in="SourceGraphic" in2="bg"/></filter><mask id="mask-27" x="87.46" y="227.83" width="160.38" height="133.77" maskUnits="userSpaceOnUse"><g class="cls-58"><g transform="translate(-286.32 -320.33)"><g class="cls-15"><polygon class="cls-16" points="509.82 559.54 373.78 548.16 373.78 548.16 403.4 591.01 466.24 681.93 466.26 681.92 534.16 594.75 509.82 559.54"/></g></g></g></mask><filter id="luminosity-noclip-28" x="441.25" y="495.76" width="92.91" height="186.17" filterUnits="userSpaceOnUse" color-interpolation-filters="sRGB"><feFlood flood-color="#fff" result="bg"/><feBlend in="SourceGraphic" in2="bg"/></filter><mask id="mask-28" x="154.93" y="175.43" width="92.91" height="186.17" maskUnits="userSpaceOnUse"><g class="cls-57"><g transform="translate(-286.32 -320.33)"><g class="cls-17"><polygon class="cls-18" points="466.24 681.93 466.26 681.92 534.16 594.75 471.31 503.82 465.74 495.76 465.74 495.76 441.25 645.78 466.24 681.93"/></g></g></g></mask><filter id="luminosity-noclip-29" x="286.32" y="397.67" width="158.88" height="68.88" filterUnits="userSpaceOnUse" color-interpolation-filters="sRGB"><feFlood flood-color="#fff" result="bg"/><feBlend in="SourceGraphic" in2="bg"/></filter><mask id="mask-29" x="0" y="77.33" width="158.88" height="68.88" maskUnits="userSpaceOnUse"><g class="cls-56"><g transform="translate(-286.32 -320.33)"><g class="cls-19"><path class="cls-20" d="M425.37,437.37a92,92,0,0,0-128-23.37l-11,7.63,31.05,44.92c32.82-4.79,81.65-8.77,127.83-.51Z"/></g></g></g></mask><filter id="luminosity-noclip-30" x="286.32" y="397.67" width="116.71" height="123.06" filterUnits="userSpaceOnUse" color-interpolation-filters="sRGB"><feFlood flood-color="#fff" result="bg"/><feBlend in="SourceGraphic" in2="bg"/></filter><mask id="mask-30" x="0" y="77.34" width="116.71" height="123.06" maskUnits="userSpaceOnUse"><g class="cls-55"><g transform="translate(-286.32 -320.33)"><g class="cls-21"><path class="cls-22" d="M403,414.69A92.06,92.06,0,0,0,297.36,414l-11,7.63,68.49,99.1S369.65,457.79,403,414.69Z"/></g></g></g></mask><filter id="luminosity-noclip-31" x="473.67" y="320.33" width="171.23" height="75.91" filterUnits="userSpaceOnUse" color-interpolation-filters="sRGB"><feFlood flood-color="#fff" result="bg"/><feBlend in="SourceGraphic" in2="bg"/></filter><mask id="mask-31" x="187.35" y="0" width="171.23" height="75.91" maskUnits="userSpaceOnUse"><g class="cls-54"><g transform="translate(-286.32 -320.33)"><g class="cls-23"><path class="cls-24" d="M613.41,355.81a92,92,0,0,0-129.15-16.05L473.67,348l32.83,42.15h0s77-37.47,138.4,6.08h0Z"/></g></g></g></mask><filter id="luminosity-noclip-32" x="594.22" y="320.33" width="132.11" height="70.94" filterUnits="userSpaceOnUse" color-interpolation-filters="sRGB"><feFlood flood-color="#fff" result="bg"/><feBlend in="SourceGraphic" in2="bg"/></filter><mask id="mask-32" x="307.9" y="0" width="132.11" height="70.94" maskUnits="userSpaceOnUse"><g class="cls-53"><g transform="translate(-286.32 -320.33)"><g class="cls-25"><path class="cls-26" d="M715.74,339.76a92,92,0,0,0-121.52,7.42c62.31-5.35,98.41,44.09,98.41,44.09h0L726.33,348Z"/></g></g></g></mask></defs><title>logo</title><g class="cls-33"><g id="Logo"><path class="cls-34" d="M473.67,348,665.84,594.75l67.9,87.17h0L796.6,591l-67.91-87.19-115.28-148a92,92,0,0,0-129.15-16.05Z" transform="translate(-286.32 -320.33)"/><g class="cls-35"><polygon class="cls-36" points="384.53 109.23 442.37 183.49 379.52 274.41 345.2 230.34 384.53 109.23"/></g><g class="cls-37"><polygon class="cls-36" points="491.63 246.72 379.52 274.41 307.89 182.45 491.63 246.72"/></g><g class="cls-38"><polygon class="cls-39" points="430.48 168.22 442.37 183.49 379.52 274.41 367.6 259.11 430.48 168.22"/></g><path class="cls-34" d="M665.84,594.75l67.9,87.17h0L796.6,591,913.68,421.63l-11-7.63a92,92,0,0,0-128,23.37l-45.94,66.45Z" transform="translate(-286.32 -320.33)"/><g class="cls-40"><polygon class="cls-36" points="403.86 239.21 539.9 227.83 539.9 227.83 510.28 270.68 447.44 361.6 447.42 361.59 379.52 274.41 403.86 239.21"/></g><g class="cls-41"><polygon class="cls-36" points="447.44 361.6 447.42 361.59 379.52 274.41 442.37 183.49 447.94 175.43 447.94 175.43 472.43 325.44 447.44 361.6"/></g><g class="cls-42"><path class="cls-36" d="M774.63,437.37a92,92,0,0,1,128-23.37l11,7.63-31,44.92c-32.82-4.79-81.65-8.77-127.83-.51Z" transform="translate(-286.32 -320.33)"/></g><g class="cls-43"><path class="cls-36" d="M797,414.69A92.06,92.06,0,0,1,902.64,414l11,7.63-68.49,99.1S830.35,457.79,797,414.69Z" transform="translate(-286.32 -320.33)"/></g><path class="cls-34" d="M726.33,348,534.16,594.75l-67.9,87.17h0L403.4,591l67.91-87.19,115.28-148a92,92,0,0,1,129.15-16.05Z" transform="translate(-286.32 -320.33)"/><g class="cls-44"><polygon class="cls-36" points="242.83 109.23 184.99 183.49 247.84 274.41 282.16 230.34 242.83 109.23"/></g><g class="cls-45"><polygon class="cls-36" points="135.74 246.72 247.84 274.41 319.47 182.45 135.74 246.72"/></g><g class="cls-46"><polygon class="cls-39" points="196.88 168.22 184.99 183.49 247.84 274.41 259.76 259.11 196.88 168.22"/></g><path class="cls-34" d="M534.16,594.75l-67.9,87.17h0L403.4,591,286.32,421.63l11-7.63a92,92,0,0,1,128,23.37l45.94,66.45Z" transform="translate(-286.32 -320.33)"/><g class="cls-47"><polygon class="cls-36" points="223.51 239.21 87.46 227.83 87.46 227.83 117.08 270.68 179.92 361.6 179.94 361.59 247.84 274.41 223.51 239.21"/></g><g class="cls-48"><polygon class="cls-36" points="179.92 361.6 179.94 361.59 247.84 274.41 184.99 183.49 179.42 175.43 179.42 175.43 154.93 325.44 179.92 361.6"/></g><g class="cls-49"><path class="cls-36" d="M425.37,437.37a92,92,0,0,0-128-23.37l-11,7.63,31.05,44.92c32.82-4.79,81.65-8.77,127.83-.51Z" transform="translate(-286.32 -320.33)"/></g><g class="cls-50"><path class="cls-36" d="M403,414.69A92.06,92.06,0,0,0,297.36,414l-11,7.63,68.49,99.1S369.65,457.79,403,414.69Z" transform="translate(-286.32 -320.33)"/></g><g class="cls-51"><path class="cls-36" d="M613.41,355.81a92,92,0,0,0-129.15-16.05L473.67,348l32.83,42.15h0s77-37.47,138.4,6.08h0Z" transform="translate(-286.32 -320.33)"/></g><g class="cls-52"><path class="cls-36" d="M715.74,339.76a92,92,0,0,0-121.52,7.42c62.31-5.35,98.41,44.09,98.41,44.09h0L726.33,348Z" transform="translate(-286.32 -320.33)"/></g></g></g></svg>